<svg width="366" height="366" viewBox="0 0 366 366" fill="none" xmlns="http://www.w3.org/2000/svg">
<path d="M331.688 257.344H303.094V205.875C303.094 204.358 302.491 202.904 301.419 201.831C300.346 200.759 298.892 200.156 297.375 200.156H188.719V154.12C204.84 152.649 219.773 145.019 230.412 132.818C241.052 120.617 246.578 104.784 245.841 88.6123C245.105 72.4408 238.162 57.1758 226.458 45.9924C214.753 34.8091 199.188 28.5684 183 28.5684C166.812 28.5684 151.247 34.8091 139.542 45.9924C127.838 57.1758 120.895 72.4408 120.159 88.6123C119.422 104.784 124.948 120.617 135.588 132.818C146.227 145.019 161.16 152.649 177.281 154.12V200.156H68.625C67.1083 200.156 65.6537 200.759 64.5812 201.831C63.5088 202.904 62.9062 204.358 62.9062 205.875V257.344H34.3125C32.7958 257.344 31.3412 257.946 30.2687 259.019C29.1963 260.091 28.5938 261.546 28.5938 263.063V331.688C28.5938 333.204 29.1963 334.659 30.2687 335.731C31.3412 336.804 32.7958 337.406 34.3125 337.406H102.938C104.454 337.406 105.909 336.804 106.981 335.731C108.054 334.659 108.656 333.204 108.656 331.688V263.063C108.656 261.546 108.054 260.091 106.981 259.019C105.909 257.946 104.454 257.344 102.938 257.344H74.3438V211.594H177.281V257.344H148.688C147.171 257.344 145.716 257.946 144.644 259.019C143.571 260.091 142.969 261.546 142.969 263.063V331.688C142.969 333.204 143.571 334.659 144.644 335.731C145.716 336.804 147.171 337.406 148.688 337.406H217.312C218.829 337.406 220.284 336.804 221.356 335.731C222.429 334.659 223.031 333.204 223.031 331.688V263.063C223.031 261.546 222.429 260.091 221.356 259.019C220.284 257.946 218.829 257.344 217.312 257.344H188.719V211.594H291.656V257.344H263.062C261.546 257.344 260.091 257.946 259.019 259.019C257.946 260.091 257.344 261.546 257.344 263.063V331.688C257.344 333.204 257.946 334.659 259.019 335.731C260.091 336.804 261.546 337.406 263.062 337.406H331.688C333.204 337.406 334.659 336.804 335.731 335.731C336.804 334.659 337.406 333.204 337.406 331.688V263.063C337.406 261.546 336.804 260.091 335.731 259.019C334.659 257.946 333.204 257.344 331.688 257.344ZM131.531 91.5001C131.531 81.3205 134.55 71.3695 140.205 62.9056C145.861 54.4416 153.899 47.8447 163.304 43.9491C172.708 40.0536 183.057 39.0343 193.041 41.0203C203.025 43.0062 212.196 47.9081 219.394 55.1062C226.592 62.3042 231.494 71.475 233.48 81.459C235.466 91.443 234.446 101.792 230.551 111.196C226.655 120.601 220.059 128.639 211.595 134.295C203.131 139.95 193.18 142.969 183 142.969C169.354 142.954 156.272 137.526 146.623 127.877C136.974 118.228 131.546 105.146 131.531 91.5001ZM97.2188 325.969H40.0312V268.781H97.2188V325.969ZM211.594 325.969H154.406V268.781H211.594V325.969ZM325.969 325.969H268.781V268.781H325.969V325.969Z" fill="white"/>
</svg>
