<svg width="297" height="297" viewBox="0 0 297 297" fill="none" xmlns="http://www.w3.org/2000/svg">
<path d="M182.531 208.783C182.531 191.288 193.312 176.009 205.132 163.11C217.995 149.074 225.844 130.368 225.844 109.828C225.844 66.2579 190.523 30.9375 146.953 30.9375C103.383 30.9375 68.0625 66.2579 68.0625 109.828C68.0625 130.368 75.9117 149.074 88.7739 163.11C100.594 176.009 111.375 191.288 111.375 208.783V219.656C111.375 229.908 119.686 238.219 129.938 238.219H163.969C174.221 238.219 182.531 229.908 182.531 219.656V208.783Z" stroke="white" stroke-width="13"/>
<path d="M146.953 58.7812C118.761 58.7812 95.9062 84.3208 95.9062 115.825" stroke="white" stroke-width="13" stroke-linecap="round"/>
<path d="M129.938 235.125V249.047C129.938 258.444 137.556 266.062 146.953 266.062C156.351 266.062 163.969 258.444 163.969 249.047V235.125" stroke="white" stroke-width="13"/>
</svg>
