<svg width="398" height="398" viewBox="0 0 398 398" fill="none" xmlns="http://www.w3.org/2000/svg">
<path d="M322.841 324.922L83.8142 324.999C80.8597 325.004 77.7796 325.194 74.8437 324.918C66.3825 324.125 58.7826 317.443 58.0825 308.757C57.7684 304.858 58.0061 300.756 58.0065 296.836L58.0151 119.831C58.0169 112.48 57.1724 104.761 62.3571 98.7327C66.1256 94.3516 70.8127 92.407 76.4805 92.0016L319.371 92.0215C321.618 92.0289 324.501 91.7429 326.65 92.3952L329.793 93.3796C336.263 96.1202 340.701 102.591 340.823 109.594L340.803 306.259C340.435 317.15 333.658 323.979 322.841 324.922ZM75.5178 104.863C69.9464 106.011 70.929 111.719 70.9203 116.051L70.929 135.154C70.9321 136.538 70.8177 138.043 71.0129 139.411L323.647 139.434L327.883 139.485L327.906 118.917C327.918 105.507 329.942 104.828 315.039 104.882L75.5178 104.863ZM90.3383 152.409L77.4661 152.42C75.3468 152.423 73.0284 152.238 70.9327 152.517L70.9234 300.667C70.9396 313.975 73.5203 312.064 84.5679 312.07L309.286 312.071L318.88 312.099C322.051 312.108 325.136 312.723 327.128 309.594L327.598 308.68C328.205 307.34 327.902 304.887 327.903 303.386L327.796 152.479L90.3383 152.409Z" fill="white"/>
<path d="M102.466 128.817C99.3335 128.887 94.966 129.084 92.3685 127.067C87.21 123.06 90.6303 116.525 97.3248 115.704C100.138 115.457 104.892 115.157 107.206 116.9C111.796 120.359 109.882 127.984 102.466 128.817ZM130.838 128.799C127.915 128.815 124.263 128.952 121.971 126.91C119.362 124.585 119.264 120.368 121.624 117.832C123.508 115.808 126.049 115.816 128.603 115.717C130.43 115.645 132.602 115.533 134.395 115.862L134.675 115.919C140.383 117.031 142.302 128.201 130.838 128.799ZM302.685 128.437L213.339 128.534C209.632 128.532 205.784 128.745 202.09 128.486C194.358 127.942 194.667 116.737 202.59 115.688L291.087 115.59C294.966 115.588 299.017 115.346 302.879 115.619C310.061 116.126 311.156 126.92 302.685 128.437ZM184.499 273.624C179.305 273.764 176.43 269.56 178.225 264.589C179.234 261.792 180.751 259.127 181.871 256.354L203.243 204.777C205.01 200.618 205.473 197.462 210.615 196.734C214.77 196.978 218.547 200.434 217.051 204.927C216.355 207.019 215.288 209.079 214.446 211.124L192.088 264.642C190.38 268.805 189.498 272.692 184.499 273.624ZM150.756 272.206C148.912 271.33 147.376 269.932 145.842 268.613L118.775 244.671C109.352 236.26 104.692 235.584 117.415 224.925L148.461 198.363C149.276 197.738 150.108 197.42 151.068 197.104L152.658 197.069C157.866 197.154 160.451 203.608 157.206 207.42C155.067 209.933 152.022 212.141 149.551 214.347L126.155 234.498C128.307 235.927 130.286 237.76 132.208 239.479L151.469 256.391C154.994 259.488 163.115 265.561 156.821 270.748C155.019 272.233 152.979 272.402 150.756 272.206ZM249.822 271.158C243.637 274.462 236.449 267.429 241.472 261.521C242.971 259.758 245.022 258.274 246.791 256.774L271.975 234.321C268.984 231.393 265.671 228.748 262.499 226.017L244.684 210.841C240.933 207.714 237.204 203.928 241.268 199.099C242.516 197.617 244.051 197.316 245.871 197.127L246.229 197.112C250.085 197.112 253.179 201.026 255.929 203.305L281.889 225.772C293.273 235.35 289.562 236.198 280.891 244.059L261.376 261.052C257.477 264.351 253.871 268.047 249.822 271.158Z" fill="white"/>
</svg>
