<svg width="380" height="380" viewBox="0 0 380 380" fill="none" xmlns="http://www.w3.org/2000/svg">
<path d="M46.884 272.479C30.6041 245.843 34.7816 211.433 56.8598 189.36C83.1448 163.082 125.877 162.966 152.162 189.244C174.16 211.236 178.216 245.433 161.973 271.958L155.283 282.884L153.938 284.677C140.819 302.175 126.442 318.746 110.973 334.208C107.253 337.926 101.215 337.933 97.4952 334.215C82.058 318.786 67.7432 302.275 54.6593 284.806L53.347 283.053L46.884 272.479ZM217.006 138.886C200.726 112.25 204.903 77.8398 226.982 55.7669C253.267 29.4887 295.999 29.3724 322.284 55.6506C344.283 77.6424 348.338 111.84 332.095 138.365L325.404 149.291L324.06 151.083C310.941 168.582 296.564 185.153 281.095 200.614C277.375 204.332 271.337 204.34 267.617 200.622C252.18 185.193 237.865 168.681 224.781 151.213L223.469 149.46L217.006 138.886Z" stroke="white" stroke-width="15"/>
<path d="M105 260C116.046 260 125 251.046 125 240C125 228.954 116.046 220 105 220C93.9543 220 85 228.954 85 240C85 251.046 93.9543 260 105 260Z" stroke="white" stroke-width="15"/>
<path d="M273 130C284.046 130 293 120.822 293 109.5C293 98.1782 284.046 89 273 89C261.954 89 253 98.1782 253 109.5C253 120.822 261.954 130 273 130Z" stroke="white" stroke-width="15"/>
<path d="M108 343L278 203" stroke="white" stroke-width="15" stroke-linecap="round" stroke-linejoin="round" stroke-dasharray="7 7"/>
</svg>
