<svg width="380" height="380" viewBox="0 0 380 380" fill="none" xmlns="http://www.w3.org/2000/svg">
<path d="M268.82 239.875L238.972 273.802C237.996 274.992 237.521 276.513 237.645 278.047C237.77 279.58 238.484 281.006 239.639 282.023C240.794 283.039 242.298 283.568 243.835 283.498C245.372 283.428 246.821 282.763 247.878 281.645L277.726 247.718C278.701 246.529 279.177 245.007 279.053 243.473C278.928 241.94 278.213 240.514 277.059 239.498C275.904 238.481 274.4 237.952 272.863 238.022C271.326 238.093 269.877 238.757 268.82 239.875ZM326.407 188.634C326.188 187.708 325.75 186.847 325.13 186.124C324.511 185.401 323.727 184.837 322.845 184.478L293.235 172.472C292.51 172.166 291.731 172.006 290.944 172.003C290.157 172 289.377 172.153 288.65 172.454C287.922 172.755 287.262 173.198 286.707 173.756C286.153 174.315 285.715 174.978 285.419 175.708C285.123 176.437 284.975 177.218 284.983 178.005C284.992 178.792 285.157 179.57 285.469 180.292C285.78 181.015 286.233 181.669 286.8 182.215C287.366 182.761 288.036 183.189 288.77 183.475L310.637 192.375L286.531 219.771C285.556 220.96 285.08 222.482 285.204 224.016C285.329 225.549 286.044 226.974 287.198 227.991C288.353 229.008 289.857 229.537 291.394 229.467C292.931 229.396 294.381 228.732 295.437 227.614L325.071 193.942C325.704 193.23 326.155 192.375 326.388 191.451C326.62 190.528 326.627 189.561 326.407 188.634ZM241.175 164.19L270.945 176.261C271.67 176.567 272.449 176.727 273.236 176.73C274.023 176.733 274.803 176.58 275.53 176.279C276.258 175.978 276.918 175.535 277.473 174.977C278.027 174.418 278.465 173.755 278.761 173.025C279.057 172.296 279.205 171.515 279.197 170.728C279.188 169.941 279.023 169.163 278.711 168.441C278.4 167.718 277.947 167.064 277.38 166.518C276.814 165.972 276.144 165.543 275.41 165.258L245.64 153.187C244.18 152.595 242.545 152.607 241.094 153.221C239.643 153.834 238.495 154.999 237.903 156.459C237.311 157.919 237.323 159.554 237.937 161.005C238.55 162.456 239.715 163.598 241.175 164.19ZM228.142 146.062L198.312 133.991C196.858 133.427 195.241 133.456 193.809 134.074C192.377 134.692 191.246 135.848 190.66 137.293C190.073 138.738 190.079 140.356 190.675 141.797C191.272 143.237 192.411 144.386 193.847 144.994L223.677 157.094C224.387 157.379 225.144 157.526 225.909 157.528C227.288 157.529 228.624 157.051 229.688 156.175C230.752 155.299 231.479 154.08 231.743 152.727C232.007 151.374 231.792 149.972 231.135 148.76C230.478 147.549 229.42 146.603 228.142 146.086V146.062ZM180.357 126.706L150.865 114.748C149.406 114.156 147.77 114.168 146.32 114.782C144.869 115.395 143.721 116.56 143.129 118.02C142.537 119.479 142.549 121.115 143.162 122.565C143.776 124.016 144.941 125.164 146.4 125.756L175.892 137.714C177.352 138.306 178.987 138.294 180.438 137.681C181.889 137.067 183.036 135.902 183.629 134.443C184.221 132.983 184.209 131.348 183.595 129.897C182.982 128.446 181.817 127.298 180.357 126.706ZM225.624 332.5H203.769L230.131 301.821C231.085 300.617 231.536 299.091 231.389 297.562C231.242 296.033 230.508 294.621 229.341 293.622C228.174 292.623 226.666 292.114 225.133 292.204C223.599 292.294 222.16 292.974 221.118 294.102L195.937 323.386V302.812C195.937 301.238 195.311 299.727 194.198 298.614C193.084 297.501 191.574 296.875 189.999 296.875C188.425 296.875 186.915 297.501 185.801 298.614C184.688 299.727 184.062 301.238 184.062 302.812V338.437C184.062 340.012 184.688 341.522 185.801 342.636C186.915 343.749 188.425 344.375 189.999 344.375H225.624C227.199 344.375 228.709 343.749 229.823 342.636C230.936 341.522 231.562 340.012 231.562 338.437C231.562 336.863 230.936 335.353 229.823 334.239C228.709 333.126 227.199 332.5 225.624 332.5Z" fill="white"/>
<path d="M100.938 142.5C123.892 142.5 142.5 123.892 142.5 100.938C142.5 77.9832 123.892 59.375 100.938 59.375C77.9832 59.375 59.375 77.9832 59.375 100.938C59.375 123.892 77.9832 142.5 100.938 142.5Z" fill="white"/>
<path d="M100.938 17.8125C99.3628 17.8125 97.8525 18.4381 96.739 19.5516C95.6256 20.6651 95 22.1753 95 23.75V47.5C95 49.0747 95.6256 50.5849 96.739 51.6984C97.8525 52.8119 99.3628 53.4375 100.938 53.4375C102.512 53.4375 104.022 52.8119 105.136 51.6984C106.249 50.5849 106.875 49.0747 106.875 47.5V23.75C106.875 22.1753 106.249 20.6651 105.136 19.5516C104.022 18.4381 102.512 17.8125 100.938 17.8125ZM100.938 148.438C99.3628 148.438 97.8525 149.063 96.739 150.177C95.6256 151.29 95 152.8 95 154.375V178.125C95 179.7 95.6256 181.21 96.739 182.323C97.8525 183.437 99.3628 184.062 100.938 184.062C102.512 184.062 104.022 183.437 105.136 182.323C106.249 181.21 106.875 179.7 106.875 178.125V154.375C106.875 152.8 106.249 151.29 105.136 150.177C104.022 149.063 102.512 148.438 100.938 148.438ZM53.4375 100.938C53.4375 99.3628 52.8119 97.8525 51.6984 96.739C50.5849 95.6256 49.0747 95 47.5 95H23.75C22.1753 95 20.6651 95.6256 19.5516 96.739C18.4381 97.8525 17.8125 99.3628 17.8125 100.938C17.8125 102.512 18.4381 104.022 19.5516 105.136C20.6651 106.249 22.1753 106.875 23.75 106.875H47.5C49.0747 106.875 50.5849 106.249 51.6984 105.136C52.8119 104.022 53.4375 102.512 53.4375 100.938ZM178.125 95H154.375C152.8 95 151.29 95.6256 150.177 96.739C149.063 97.8525 148.438 99.3628 148.438 100.938C148.438 102.512 149.063 104.022 150.177 105.136C151.29 106.249 152.8 106.875 154.375 106.875H178.125C179.7 106.875 181.21 106.249 182.323 105.136C183.437 104.022 184.062 102.512 184.062 100.938C184.062 99.3628 183.437 97.8525 182.323 96.739C181.21 95.6256 179.7 95 178.125 95ZM50.5578 42.1562C49.4437 41.0421 47.9326 40.4162 46.357 40.4162C44.7814 40.4162 43.2704 41.0421 42.1562 42.1562C41.0421 43.2704 40.4162 44.7814 40.4162 46.357C40.4162 47.9326 41.0421 49.4437 42.1562 50.5578L58.9475 67.3491C60.0673 68.4306 61.5672 69.0291 63.1239 69.0156C64.6807 69.002 66.1699 68.3776 67.2708 67.2767C68.3717 66.1759 68.9961 64.6867 69.0096 63.1299C69.0232 61.5731 68.4247 60.0733 67.3431 58.9534L50.5578 42.1562ZM142.922 134.526C141.802 133.444 140.302 132.846 138.745 132.859C137.188 132.873 135.699 133.497 134.598 134.598C133.497 135.699 132.873 137.188 132.859 138.745C132.846 140.302 133.444 141.802 134.526 142.922L151.317 159.719C152.431 160.833 153.942 161.459 155.518 161.459C157.094 161.459 158.605 160.833 159.719 159.719C160.833 158.605 161.459 157.094 161.459 155.518C161.459 153.942 160.833 152.431 159.719 151.317L142.922 134.526ZM58.9534 134.526L42.1562 151.317C41.6046 151.869 41.167 152.524 40.8684 153.245C40.5699 153.965 40.4162 154.738 40.4162 155.518C40.4162 157.094 41.0421 158.605 42.1562 159.719C43.2704 160.833 44.7814 161.459 46.357 161.459C47.1372 161.459 47.9097 161.305 48.6305 161.007C49.3512 160.708 50.0062 160.27 50.5578 159.719L67.3491 142.928C68.4306 141.808 69.0291 140.308 69.0156 138.751C69.002 137.194 68.3776 135.705 67.2767 134.604C66.1759 133.503 64.6867 132.879 63.1299 132.865C61.5731 132.852 60.0733 133.45 58.9534 134.532V134.526ZM138.724 69.0887C139.504 69.0909 140.276 68.9382 140.997 68.6396C141.718 68.3409 142.372 67.9023 142.922 67.3491L159.719 50.5578C160.27 50.0062 160.708 49.3512 161.007 48.6305C161.305 47.9097 161.459 47.1372 161.459 46.357C161.459 45.5769 161.305 44.8044 161.007 44.0836C160.708 43.3628 160.27 42.7079 159.719 42.1562C159.167 41.6046 158.512 41.167 157.791 40.8684C157.071 40.5699 156.298 40.4162 155.518 40.4162C154.738 40.4162 153.965 40.5699 153.245 40.8684C152.524 41.167 151.869 41.6046 151.317 42.1562L134.526 58.9534C133.696 59.7838 133.131 60.8417 132.902 61.9933C132.673 63.1448 132.79 64.3385 133.239 65.4233C133.689 66.508 134.45 67.4353 135.426 68.0877C136.402 68.7401 137.55 69.0885 138.724 69.0887Z" fill="white"/>
<path d="M356.25 17.8125H320.625C317.346 17.8125 314.688 20.4708 314.688 23.75V356.25C314.688 359.529 317.346 362.188 320.625 362.188H356.25C359.529 362.188 362.188 359.529 362.188 356.25V23.75C362.188 20.4708 359.529 17.8125 356.25 17.8125Z" fill="white"/>
</svg>
