<svg width="380" height="380" viewBox="0 0 380 380" fill="none" xmlns="http://www.w3.org/2000/svg">
<path d="M190 163.4C175.18 163.4 163.4 175.18 163.4 190C163.4 204.82 175.18 216.6 190 216.6C204.82 216.6 216.6 204.82 216.6 190C216.6 175.18 204.82 163.4 190 163.4ZM190 201.4C183.54 201.4 178.6 196.08 178.6 190C178.6 183.54 183.54 178.6 190 178.6C196.46 178.6 201.4 183.54 201.4 190C201.4 196.08 196.46 201.4 190 201.4ZM190 19C95.76 19 19 95.76 19 190C19 284.24 95.76 361 190 361C284.24 361 361 284.24 361 190C361 95.76 284.24 19 190 19ZM190 345.8C104.12 345.8 34.2 275.88 34.2 190C34.2 104.12 104.12 34.2 190 34.2C275.88 34.2 345.8 104.12 345.8 190C345.8 275.88 275.88 345.8 190 345.8ZM190 57C116.66 57 57 116.66 57 190C57 263.34 116.66 323 190 323C263.34 323 323 263.34 323 190C323 116.66 263.34 57 190 57ZM304.76 163.78H238.64L237.12 161.12L270.18 103.74C287.28 119.7 299.44 140.22 304.76 163.78ZM190 72.2C202.16 72.2 213.94 74.1 224.96 77.52L191.9 134.9H188.48L155.42 77.52C166.06 74.1 177.84 72.2 190 72.2ZM109.82 103.74L142.88 161.12L141.36 163.78H75.24C80.56 140.22 92.72 119.7 109.82 103.74ZM75.24 216.22H141.36L142.88 218.88L109.82 276.26C92.72 260.3 80.56 239.78 75.24 216.22ZM190 307.8C177.84 307.8 166.06 305.9 155.04 302.48L188.1 245.1H191.52L224.58 302.48C213.94 305.9 202.16 307.8 190 307.8ZM270.18 276.26L237.12 218.88L238.64 216.22H304.76C299.44 239.78 287.28 260.3 270.18 276.26ZM307.42 201.02H234.08C231.42 201.02 228.76 202.54 227.62 204.82L221.54 215.08C220.02 217.36 220.02 220.4 221.54 222.68L258.02 285.76C256.12 287.28 253.84 288.8 251.56 289.94L245.1 293.74C243.2 294.88 240.92 296.02 238.64 296.78L202.16 233.7C201.02 231.42 198.36 229.9 195.7 229.9H183.54C180.88 229.9 178.22 231.42 177.08 233.7L140.6 296.78C138.32 295.64 136.42 294.88 134.14 293.74L127.68 289.94C125.4 288.42 123.5 287.28 121.22 285.76L157.7 222.68C159.22 220.4 159.22 217.36 157.7 215.08L151.62 204.82C150.1 202.54 147.82 201.02 145.16 201.02H72.58C72.58 198.74 72.2 196.08 72.2 193.8V186.2C72.2 183.92 72.58 181.26 72.58 178.98H145.54C148.2 178.98 150.86 177.46 152 175.18L158.08 164.92C159.6 162.64 159.6 159.6 158.08 157.32L121.6 93.86C123.5 92.34 125.78 90.82 128.06 89.68L134.14 86.26C136.04 85.12 138.32 83.98 140.6 83.22L177.08 146.68C178.22 148.96 180.88 150.48 183.54 150.48H195.7C198.36 150.48 201.02 148.96 202.16 146.68L238.64 83.22C240.92 84.36 242.82 85.12 245.1 86.26L251.18 89.68C253.46 91.2 255.36 92.34 257.64 93.86L221.16 157.32C219.64 159.6 219.64 162.64 221.16 164.92L227.24 175.18C228.76 177.46 231.04 178.98 233.7 178.98H306.66C307.04 181.26 307.04 183.92 307.04 186.2V193.8C307.8 196.08 307.42 198.36 307.42 201.02Z" fill="white"/>
</svg>
