<svg width="350" height="350" viewBox="0 0 350 350" fill="none" xmlns="http://www.w3.org/2000/svg">
<path d="M175 29.1665C146.157 29.1665 117.962 37.7195 93.9797 53.7439C69.9976 69.7682 51.3057 92.5443 40.268 119.192C29.2302 145.839 26.3422 175.162 31.9692 203.451C37.5962 231.739 51.4855 257.724 71.8807 278.12C92.2758 298.515 118.261 312.404 146.55 318.031C174.839 323.658 204.161 320.77 230.808 309.732C257.456 298.694 280.232 280.003 296.256 256.02C312.281 232.038 320.834 203.843 320.834 175C320.834 155.849 317.062 136.885 309.733 119.192C302.404 101.499 291.662 85.422 278.12 71.8801C264.578 58.3382 248.502 47.5962 230.808 40.2674C213.115 32.9386 194.151 29.1665 175 29.1665ZM175 291.666C144.058 291.666 114.384 279.375 92.5046 257.496C70.6254 235.616 58.3337 205.942 58.3337 175C58.3015 149.09 66.9819 123.922 82.9796 103.542L246.459 267.021C226.078 283.018 200.91 291.699 175 291.666ZM267.021 246.458L103.542 82.979C123.923 66.9813 149.091 58.3009 175 58.3332C205.942 58.3332 235.617 70.6248 257.496 92.504C279.375 114.383 291.667 144.058 291.667 175C291.699 200.909 283.019 226.077 267.021 246.458Z" fill="white"/>
</svg>
