<svg width="360" height="360" viewBox="0 0 360 360" fill="none" xmlns="http://www.w3.org/2000/svg">
<g clip-path="url(#clip0_2073_995)">
<path d="M54.6974 322.357C58.7084 322.397 62.6084 321.04 65.7285 318.519C68.8486 315.999 70.9945 312.471 71.7983 308.541C72.6021 304.611 72.0137 300.524 70.134 296.981C68.2542 293.437 65.2003 290.658 61.4958 289.119C57.7912 287.581 53.667 287.38 49.8301 288.549C45.9932 289.719 42.6827 292.187 40.4663 295.53C38.2499 298.873 37.2656 302.884 37.6823 306.873C38.099 310.863 39.8906 314.583 42.7499 317.396C44.3172 318.968 46.1792 320.216 48.2294 321.067C50.2795 321.918 52.4775 322.357 54.6974 322.357ZM50.7824 301.5C51.6739 300.578 52.8585 299.995 54.1329 299.851C55.4074 299.706 56.6922 300.01 57.7671 300.71C58.842 301.41 59.6399 302.462 60.024 303.685C60.408 304.909 60.3542 306.228 59.8719 307.417C59.3895 308.605 58.5087 309.589 57.3804 310.199C56.2521 310.808 54.9468 311.007 53.6883 310.759C52.4298 310.512 51.2966 309.834 50.4831 308.843C49.6696 307.851 49.2266 306.607 49.2299 305.325C49.244 303.899 49.7989 302.532 50.7824 301.5ZM330.986 251.539H281.25H281.081H248.107L286.965 229.106L330.03 204.244C330.637 203.895 331.155 203.422 331.706 203.04C337.327 199.327 341.393 193.684 343.136 187.177C343.851 184.341 344.117 181.411 343.924 178.492C343.924 177.772 343.924 177.041 343.845 176.321C343.777 175.781 343.586 175.264 343.485 174.724C342.946 171.603 341.876 168.597 340.324 165.836L314.674 121.399C313.727 119.762 312.619 118.225 311.366 116.809C307.06 111.984 301.223 108.79 294.838 107.766C288.453 106.741 281.91 107.948 276.311 111.184L233.246 136.046L210.971 148.916L223.785 126.709L223.864 126.63L248.749 83.5537C249.469 82.2402 250.082 80.8707 250.582 79.4587C250.706 79.1324 250.909 78.8174 251.021 78.4912C251.224 77.8837 251.302 77.2537 251.471 76.6349C251.828 75.4326 252.103 74.2073 252.292 72.9674C252.974 67.6745 252.116 62.2975 249.822 57.4793C247.527 52.6611 243.893 48.6059 239.355 45.7987C239.029 45.5962 238.77 45.3262 238.444 45.1349L194.006 19.4849C190.373 17.2256 186.239 15.8951 181.97 15.6106C177.701 15.3261 173.427 16.0965 169.526 17.8537C168.862 18.1124 168.176 18.2924 167.535 18.5962C166.894 18.8999 166.016 19.5187 165.285 19.9912C164.461 20.445 163.662 20.9407 162.889 21.4762C162.304 21.9262 161.764 22.4887 161.269 22.9837C160.421 23.6842 159.617 24.4356 158.861 25.2337C157.795 26.4797 156.839 27.816 156.004 29.2274C155.891 29.4074 155.745 29.5537 155.632 29.7449L130.669 72.7987L108.45 111.375V29.0137C108.45 21.5545 105.487 14.4008 100.212 9.12629C94.9378 3.85183 87.7841 0.888672 80.3249 0.888672H29.0137C21.5545 0.888672 14.4008 3.85183 9.12629 9.12629C3.85183 14.4008 0.888672 21.5545 0.888672 29.0137V330.75C0.902177 334.769 1.78254 338.738 3.46968 342.386C5.15683 346.034 7.61106 349.275 10.6649 351.889C11.1149 352.282 11.5874 352.676 12.0712 353.014C13.7124 354.283 15.4896 355.366 17.3699 356.242C17.7187 356.411 17.9662 356.659 18.3149 356.816C21.7751 358.282 25.4919 359.047 29.2499 359.066H330.964C338.417 359.048 345.561 356.079 350.831 350.809C356.102 345.538 359.071 338.395 359.089 330.941V279.641C359.089 272.186 356.129 265.036 350.859 259.762C345.589 254.488 338.441 251.522 330.986 251.516V251.539ZM97.1999 330.75C97.1999 335.225 95.422 339.518 92.2573 342.682C89.0927 345.847 84.8004 347.625 80.3249 347.625H29.0137C26.5448 347.615 24.1088 347.058 21.8812 345.994C20.8377 345.487 19.8435 344.884 18.9112 344.194C18.6299 343.98 18.3712 343.755 18.1012 343.53C17.0045 342.611 16.0292 341.556 15.1987 340.391L15.1087 340.301C13.1679 337.498 12.1279 334.17 12.1274 330.761V228.836H97.1999V330.75ZM97.1999 217.552H12.1387V156.6H97.1999V217.552ZM97.1999 145.327H12.1387V84.3749H97.1999V145.327ZM97.1999 73.1024H12.1387V29.0137C12.1387 24.5381 13.9166 20.2459 17.0812 17.0812C20.2459 13.9166 24.5381 12.1387 29.0137 12.1387H80.3249C84.8004 12.1387 89.0927 13.9166 92.2573 17.0812C95.422 20.2459 97.1999 24.5381 97.1999 29.0137V73.1024ZM281.902 120.859C284.781 119.196 288.085 118.416 291.403 118.616C294.722 118.816 297.908 119.987 300.566 121.984L300.746 122.141C302.418 123.451 303.827 125.065 304.897 126.9V126.967L330.536 171.394C332.132 174.17 332.912 177.34 332.786 180.54C332.786 180.686 332.786 180.832 332.786 180.979C332.786 181.53 332.606 182.104 332.516 182.632C332.438 183.215 332.329 183.794 332.19 184.365C331.632 186.4 330.688 188.31 329.411 189.99C329.332 190.091 329.231 190.17 329.152 190.26C327.844 191.926 326.233 193.33 324.405 194.4L286.155 216.461L280.327 206.336L243.72 142.875L281.902 120.859ZM234 148.5L276.514 222.109L223.706 252.596L187.324 189.754L199.699 168.311L234 148.5ZM156.847 49.9612L165.296 35.3362C166.387 33.441 167.84 31.7784 169.571 30.4424L169.65 30.3637C172.298 28.3445 175.484 27.1539 178.807 26.9417C182.13 26.7295 185.442 27.5052 188.325 29.1712L232.774 54.8212C234.622 55.8945 236.249 57.3112 237.566 58.9949C237.645 59.0962 237.746 59.1862 237.825 59.2874C240.414 62.7683 241.581 67.1047 241.087 71.4149V71.5162C241.02 72.0674 240.84 72.6412 240.716 73.1587C240.355 74.8003 239.748 76.3781 238.916 77.8387L216.866 116.089L178.954 94.1737L143.235 73.5412L156.847 49.9612ZM108.472 133.807L137.61 83.2499L172.924 103.635L211.241 125.764L199.215 146.599L180.754 178.571L139.41 154.676L108.45 136.822L108.472 133.807ZM108.472 149.816L175.151 188.359L144.664 241.234L108.45 220.286L108.472 149.816ZM108.472 233.28L139.016 250.875L108.45 303.896L108.472 233.28ZM131.197 347.85H102.51C105.98 343.367 107.997 337.93 108.292 332.269L131.164 319.061L131.197 347.85ZM134.325 304.279L114.705 315.607L139.196 273.184L151.436 294.401L134.719 304.054C134.539 304.121 134.426 304.222 134.291 304.29L134.325 304.279ZM203.422 347.85H142.447V312.581L203.422 277.369V347.85ZM161.167 288.742L145.699 261.911L180.832 201.037L213.964 258.266L161.167 288.742ZM275.625 347.861H214.65V270.877L228.634 262.8H275.625V347.861ZM347.85 330.986C347.85 335.462 346.072 339.754 342.907 342.919C339.743 346.083 335.45 347.861 330.975 347.861H286.875V262.8H330.964C335.439 262.8 339.731 264.578 342.896 267.742C346.061 270.907 347.839 275.199 347.839 279.675L347.85 330.986Z" fill="white"/>
</g>
<defs>
<clipPath id="clip0_2073_995">
<rect width="360" height="360" fill="white"/>
</clipPath>
</defs>
</svg>
