<svg width="360" height="360" viewBox="0 0 360 360" fill="none" xmlns="http://www.w3.org/2000/svg">
<g clip-path="url(#clip0_2073_997)">
<path d="M176.373 0.0399804C173.302 0.114874 170.104 0.287043 167.011 0.511724C68.0538 7.62665 -6.51804 93.942 0.604367 192.892C7.72678 291.849 93.8023 366.654 192.76 359.531C291.717 352.416 366.514 266.108 359.399 167.151C352.501 71.2865 271.413 -1.95969 176.373 0.0399804ZM176.845 22.5082C260.217 20.7257 330.872 84.423 336.931 168.551C343.177 255.398 277.967 330.817 191.12 337.063C104.273 343.317 29.3262 278.098 23.0725 191.259C16.8264 104.412 81.8044 29.2262 168.651 22.9726C171.363 22.7853 174.156 22.5681 176.845 22.5082ZM179.885 32.3416C177.887 32.3397 175.908 32.7321 174.062 33.4959C172.216 34.2596 170.538 35.3797 169.125 36.7926C167.712 38.2054 166.592 39.8831 165.828 41.7294C165.065 43.5758 164.672 45.5545 164.674 47.5526C164.674 55.9707 171.467 62.7636 179.885 62.7636C188.304 62.7636 195.329 55.971 195.329 47.5604C195.329 39.1348 188.304 32.3416 179.885 32.3416ZM245.418 114.493L203.754 138.129L162.098 161.998L138.222 203.661L114.585 245.557L156.249 221.681L197.905 197.812L221.781 156.149L245.418 114.493ZM48.5889 164.807C46.5896 164.804 44.6093 165.195 42.7616 165.959C40.9138 166.723 39.235 167.844 37.8212 169.258C36.4075 170.671 35.2866 172.35 34.5229 174.198C33.7591 176.045 33.3675 178.026 33.3705 180.025C33.3705 188.435 40.1708 195.229 48.5889 195.229C50.5864 195.231 52.5646 194.839 54.4105 194.075C56.2564 193.312 57.9337 192.192 59.3464 190.78C60.7592 189.368 61.8797 187.692 62.6439 185.846C63.408 184.001 63.8009 182.022 63.7999 180.025C63.8028 178.026 63.4114 176.047 62.6482 174.199C61.8849 172.352 60.7647 170.674 59.3517 169.26C57.9388 167.847 56.2608 166.725 54.414 165.961C52.5671 165.197 50.5876 164.805 48.5889 164.807ZM311.414 164.807C309.416 164.806 307.437 165.199 305.591 165.964C303.745 166.728 302.068 167.849 300.656 169.263C299.244 170.676 298.124 172.355 297.362 174.201C296.599 176.048 296.208 178.027 296.211 180.025C296.211 188.435 303.004 195.229 311.414 195.229C313.412 195.232 315.391 194.84 317.238 194.078C319.085 193.315 320.763 192.195 322.176 190.783C323.59 189.371 324.711 187.694 325.476 185.848C326.241 184.002 326.634 182.023 326.633 180.025C326.636 178.026 326.244 176.045 325.48 174.198C324.716 172.35 323.596 170.671 322.182 169.258C320.768 167.844 319.089 166.723 317.241 165.959C315.394 165.195 313.413 164.804 311.414 164.807ZM179.885 295.174C171.467 295.174 164.674 302.207 164.674 310.617C164.674 319.036 171.467 325.828 179.885 325.828C188.304 325.828 195.329 319.036 195.329 310.625C195.29 306.541 193.65 302.634 190.763 299.745C187.875 296.857 183.97 295.215 179.885 295.174Z" fill="white"/>
</g>
<defs>
<clipPath id="clip0_2073_997">
<rect width="360" height="360" fill="white"/>
</clipPath>
</defs>
</svg>
