<svg width="360" height="360" viewBox="0 0 360 360" fill="none" xmlns="http://www.w3.org/2000/svg">
<g clip-path="url(#clip0_2083_1015)">
<path d="M45 195H75V165H45V195ZM45 255H75V225H45V255ZM75 315V285H45C45 301.575 58.425 315 75 315ZM45 135H75V105H45V135ZM225 315H255V285H225V315ZM285 45H135C118.425 45 105 58.425 105 75V225C105 241.575 118.425 255 135 255H285C301.575 255 315 241.575 315 225V75C315 58.425 301.575 45 285 45ZM285 225H135V75H285V225ZM165 315H195V285H165V315ZM105 315H135V285H105V315Z" fill="white"/>
</g>
<defs>
<clipPath id="clip0_2083_1015">
<rect width="360" height="360" fill="white"/>
</clipPath>
</defs>
</svg>
