<svg width="360" height="360" viewBox="0 0 360 360" fill="none" xmlns="http://www.w3.org/2000/svg">
<path d="M180 7.2002C84.6896 7.2002 7.18164 84.7262 7.18164 180C7.18164 275.274 84.6896 352.8 180 352.8C275.274 352.8 352.8 275.274 352.8 180C352.8 84.7262 275.274 7.2002 180 7.2002ZM327.384 180C327.384 213.714 315.936 244.8 296.856 269.64C291.456 265.428 285.714 254.034 291.114 242.226C296.568 230.346 297.99 202.842 296.73 192.132C295.542 181.44 289.98 155.682 274.878 155.43C259.794 155.214 249.444 150.228 240.48 132.336C221.886 95.1122 275.382 87.9662 256.788 67.3742C251.586 61.5782 224.694 91.1702 220.752 51.7322C220.5 48.9062 223.182 44.6762 226.8 40.2842C285.192 59.9042 327.384 115.11 327.384 180ZM159.75 34.0742C156.222 40.9502 146.916 43.7402 141.264 48.9062C128.952 60.0482 123.66 58.5002 117.036 69.1922C110.358 79.8842 88.8296 95.2742 88.8296 103.014C88.8296 110.754 99.7016 119.862 105.138 118.098C110.574 116.298 124.92 116.406 133.344 119.358C141.786 122.346 203.796 125.334 184.032 177.75C177.768 194.418 150.318 191.61 143.01 219.204C141.912 223.254 138.114 240.552 137.88 246.204C137.43 254.952 144.072 287.928 135.63 287.928C127.152 287.928 104.346 258.426 104.346 253.08C104.346 247.734 98.4416 228.996 98.4416 212.94C98.4416 196.902 71.1176 197.154 71.1176 175.824C71.1176 156.6 85.9316 147.024 82.6016 137.79C79.3436 128.61 53.3156 128.304 42.4616 127.17C51.952 102.615 67.8271 81.0398 88.4465 64.6734C109.066 48.307 133.681 37.7434 159.75 34.0742ZM133.632 319.86C142.488 315.18 143.388 309.132 151.416 308.826C160.596 308.412 168.066 305.244 178.416 302.958C187.596 300.96 204.03 291.636 218.484 290.448C230.688 289.458 254.754 291.078 261.234 302.85C242.653 315.189 221.505 323.134 199.396 326.081C177.286 329.028 154.796 326.901 133.632 319.86Z" fill="white"/>
</svg>
