<svg width="360" height="360" viewBox="0 0 360 360" fill="none" xmlns="http://www.w3.org/2000/svg">
<path d="M316.8 160.65L190.65 34.3498C189.249 32.9595 187.586 31.8597 185.759 31.1132C183.931 30.3667 181.974 29.9883 180 29.9998H45.0003C41.022 29.9998 37.2067 31.5801 34.3936 34.3932C31.5806 37.2062 30.0003 41.0215 30.0003 44.9998V180C29.9888 181.974 30.3672 183.931 31.1137 185.758C31.8602 187.586 32.96 189.248 34.3503 190.65L160.65 316.8C169.088 325.227 180.525 329.96 192.45 329.96C204.375 329.96 215.813 325.227 224.25 316.8L316.8 225C325.227 216.562 329.961 205.125 329.961 193.2C329.961 181.275 325.227 169.837 316.8 161.4V160.65ZM295.65 202.95L202.95 295.5C200.14 298.294 196.338 299.862 192.375 299.862C188.412 299.862 184.611 298.294 181.8 295.5L60.0003 173.85V59.9998H173.85L295.65 181.8C297.04 183.201 298.14 184.864 298.887 186.691C299.633 188.519 300.012 190.476 300 192.45C299.984 196.385 298.421 200.156 295.65 202.95Z" fill="white"/>
</svg>
