<svg width="360" height="360" viewBox="0 0 360 360" fill="none" xmlns="http://www.w3.org/2000/svg">
<path d="M123 45H87C64.5 45 45 64.5 45 87V121.5C45 145.5 64.5 165 87 165H121.5C145.5 165 165 145.5 165 123V87C165 64.5 145.5 45 123 45ZM135 123C135 129 129 135 123 135H87C81 135 75 129 75 123V87C75 81 81 75 87 75H121.5C129 75 135 81 135 87V123ZM273 45H238.5C214.5 45 195 64.5 195 87V121.5C195 145.5 214.5 163.5 237 163.5H271.5C295.5 163.5 313.5 144 313.5 121.5V87C315 64.5 295.5 45 273 45ZM285 123C285 129 279 135 273 135H238.5C231 135 225 129 225 123V87C225 81 231 75 237 75H271.5C279 75 285 81 285 87V123ZM273 195H238.5C214.5 195 196.5 214.5 196.5 237V271.5C196.5 295.5 216 313.5 238.5 313.5H273C297 313.5 315 294 315 271.5V237C315 214.5 295.5 195 273 195ZM285 273C285 280.5 279 285 273 285H238.5C231 285 226.5 279 226.5 273V238.5C226.5 231 232.5 226.5 238.5 226.5H273C280.5 226.5 285 232.5 285 238.5V273ZM123 195H87C64.5 195 45 214.5 45 237V271.5C45 295.5 64.5 315 87 315H121.5C145.5 315 163.5 295.5 163.5 273V238.5C165 214.5 145.5 195 123 195ZM135 273C135 279 129 285 123 285H87C81 285 75 279 75 273V238.5C75 231 81 225 87 225H121.5C129 225 135 231 135 237V273Z" fill="white"/>
</svg>
