<svg width="360" height="360" viewBox="0 0 360 360" fill="none" xmlns="http://www.w3.org/2000/svg">
<g clip-path="url(#clip0_2073_999)">
<path d="M180 22.5C178.517 22.5 177.067 22.9399 175.833 23.764C174.6 24.5881 173.639 25.7594 173.071 27.1299C172.503 28.5003 172.355 30.0083 172.644 31.4632C172.933 32.918 173.648 34.2544 174.697 35.3033C175.746 36.3522 177.082 37.0665 178.537 37.3559C179.992 37.6453 181.5 37.4968 182.87 36.9291C184.241 36.3614 185.412 35.4001 186.236 34.1668C187.06 32.9334 187.5 31.4834 187.5 30C187.5 28.0109 186.71 26.1032 185.303 24.6967C183.897 23.2902 181.989 22.5 180 22.5ZM255 0H105C95.0544 0 85.5161 3.95088 78.4835 10.9835C71.4509 18.0161 67.5 27.5544 67.5 37.5V322.5C67.5 327.425 68.47 332.301 70.3545 336.851C72.2391 341.4 75.0013 345.534 78.4835 349.017C81.9657 352.499 86.0997 355.261 90.6494 357.145C95.1991 359.03 100.075 360 105 360H255C259.925 360 264.801 359.03 269.351 357.145C273.9 355.261 278.034 352.499 281.517 349.017C284.999 345.534 287.761 341.4 289.645 336.851C291.53 332.301 292.5 327.425 292.5 322.5V37.5C292.5 27.5544 288.549 18.0161 281.517 10.9835C274.484 3.95088 264.946 0 255 0ZM277.5 322.5C277.5 328.467 275.129 334.19 270.91 338.41C266.69 342.629 260.967 345 255 345H105C99.0326 345 93.3097 342.629 89.0901 338.41C84.8705 334.19 82.5 328.467 82.5 322.5V270H277.5V322.5ZM277.5 255H82.5V60H277.5V255ZM277.5 45H82.5V37.5C82.5 31.5326 84.8705 25.8097 89.0901 21.5901C93.3097 17.3705 99.0326 15 105 15H255C260.967 15 266.69 17.3705 270.91 21.5901C275.129 25.8097 277.5 31.5326 277.5 37.5V45ZM180 330C184.45 330 188.8 328.68 192.5 326.208C196.2 323.736 199.084 320.222 200.787 316.11C202.49 311.999 202.936 307.475 202.068 303.11C201.2 298.746 199.057 294.737 195.91 291.59C192.763 288.443 188.754 286.3 184.39 285.432C180.025 284.564 175.501 285.01 171.39 286.713C167.278 288.416 163.764 291.3 161.292 295C158.82 298.7 157.5 303.05 157.5 307.5C157.5 313.467 159.871 319.19 164.09 323.41C168.31 327.629 174.033 330 180 330ZM180 300C181.483 300 182.933 300.44 184.167 301.264C185.4 302.088 186.361 303.259 186.929 304.63C187.497 306 187.645 307.508 187.356 308.963C187.067 310.418 186.352 311.754 185.303 312.803C184.254 313.852 182.918 314.567 181.463 314.856C180.008 315.145 178.5 314.997 177.13 314.429C175.759 313.861 174.588 312.9 173.764 311.667C172.94 310.433 172.5 308.983 172.5 307.5C172.5 305.511 173.29 303.603 174.697 302.197C176.103 300.79 178.011 300 180 300Z" fill="white"/>
</g>
<defs>
<clipPath id="clip0_2073_999">
<rect width="360" height="360" fill="white"/>
</clipPath>
</defs>
</svg>
