<svg width="300" height="300" viewBox="0 0 300 300" fill="none" xmlns="http://www.w3.org/2000/svg">
<g clip-path="url(#clip0_2076_1006)">
<path d="M150 300C67.5 300 0 232.5 0 150C0 67.5 67.5 0 150 0C232.5 0 300 67.5 300 150C300 232.5 232.5 300 150 300ZM150 25C81.25 25 25 81.25 25 150C25 218.75 81.25 275 150 275C218.75 275 275 218.75 275 150C275 81.25 218.75 25 150 25Z" fill="white"/>
<path d="M150 200C142.5 200 137.5 195 137.5 187.5V178.75C137.5 160 147.5 143.75 162.5 135C172.5 130 177.5 118.75 175 108.75C173.75 98.75 165 90 155 88.75C147.5 87.5 140 88.75 133.75 93.75C128.75 97.5 125 105 125 112.5C125 120 120 125 112.5 125C105 125 100 120 100 112.5C100 97.5 106.25 83.75 117.5 73.75C128.75 63.75 143.75 60 158.75 62.5C178.75 66.25 195 82.5 198.75 102.5C202.5 123.75 192.5 145 173.75 155C166.25 158.75 162.5 167.5 162.5 177.5V187.5C162.5 195 157.5 200 150 200Z" fill="white"/>
<path d="M150 237.5C156.904 237.5 162.5 231.904 162.5 225C162.5 218.096 156.904 212.5 150 212.5C143.096 212.5 137.5 218.096 137.5 225C137.5 231.904 143.096 237.5 150 237.5Z" fill="white"/>
<path d="M150 243.75C140 243.75 131.25 235 131.25 225C131.25 215 140 206.25 150 206.25C160 206.25 168.75 215 168.75 225C168.75 235 160 243.75 150 243.75ZM150 218.75C146.25 218.75 143.75 221.25 143.75 225C143.75 228.75 146.25 231.25 150 231.25C153.75 231.25 156.25 228.75 156.25 225C156.25 221.25 153.75 218.75 150 218.75Z" fill="white"/>
</g>
<defs>
<clipPath id="clip0_2076_1006">
<rect width="300" height="300" fill="white"/>
</clipPath>
</defs>
</svg>
