<svg width="356" height="356" viewBox="0 0 356 356" fill="none" xmlns="http://www.w3.org/2000/svg">
<path d="M178 3.45459C98.9654 3.45459 32.0697 56.3528 10.6596 128.641C10.6317 128.708 10.5745 128.752 10.5494 128.821C10.4959 128.968 10.5226 129.116 10.4823 129.264C5.93756 144.821 3.4541 161.25 3.4541 178.259C3.4541 268.533 71.0076 343.315 160.592 352.202C163.559 352.522 166.265 350.311 166.558 347.312C166.856 344.316 164.667 341.645 161.668 341.346C150.825 340.27 140.334 338.146 130.272 335.111L138.636 311.093C151.372 314.886 164.593 316.806 178.006 316.806C238.787 316.806 294.091 275.679 311.04 216.299C311.855 213.433 310.219 210.44 307.364 209.58L272.688 199.136C271.297 198.718 269.768 198.878 268.49 199.579C267.206 200.285 266.258 201.477 265.865 202.889C262.115 216.296 255.179 228.894 245.82 239.318C243.807 241.558 243.993 245.008 246.236 247.021C248.468 249.032 251.93 248.856 253.938 246.605C263.17 236.33 270.286 224.159 274.723 211.142L298.964 218.443C288.827 248.984 267.566 273.854 240.619 289.176L225.024 260.058C223.602 257.405 220.284 256.396 217.642 257.826C214.984 259.248 213.982 262.553 215.404 265.208L230.91 294.161C214.62 301.67 196.672 305.897 178.006 305.897C163.97 305.897 150.174 303.617 136.995 299.118C134.161 298.154 131.066 299.656 130.081 302.485L119.945 331.592C57.5872 308.13 14.3632 248.171 14.3632 178.259C14.3632 164.317 16.1217 150.78 19.4081 137.849L47.9485 148.226C50.9419 149.312 54.2288 147.615 55.0754 144.54C59.9496 126.735 68.4723 110.495 80.409 96.267C82.3426 93.9602 82.0388 90.5195 79.7326 88.5831C77.421 86.644 73.9852 86.9533 72.0461 89.2568C60.3756 103.176 51.7088 118.873 46.233 135.993L22.4834 127.357C43.9159 61.8351 105.51 14.3642 178 14.3642C214.946 14.3642 249.062 26.7057 276.482 47.4695L237.522 95.3059C227.25 87.903 215.671 82.2842 203.115 79.0944C200.228 78.3515 197.224 80.1144 196.489 83.0386C195.743 85.9579 197.512 88.9246 200.431 89.6675C213.213 92.9151 224.949 98.8693 235.002 106.945C235.018 106.958 235.023 106.977 235.039 106.989C235.072 107.016 235.114 107.024 235.147 107.05C245.403 115.323 253.892 125.817 259.883 137.98C261.239 140.723 264.541 141.775 267.186 140.462C269.892 139.133 271 135.863 269.674 133.159C263.79 121.211 255.662 110.802 246.019 102.146L284.939 54.3608C315.503 80.86 336.216 118.454 340.706 160.852L315.543 163.785C313.561 144.646 307.76 126.447 298.161 109.647C296.67 107.034 293.335 106.115 290.719 107.617C288.104 109.111 287.193 112.443 288.69 115.059C297.551 130.571 302.897 147.377 304.706 165.048L243.568 172.176C241.774 152.882 231.627 135.17 215.506 123.965C213.034 122.25 209.635 122.855 207.915 125.332C206.195 127.806 206.807 131.204 209.284 132.925C224.151 143.261 233.03 160.208 233.03 178.26C233.03 208.655 208.346 233.384 178.006 233.384C147.654 233.384 122.965 208.655 122.965 178.26C122.965 149.914 145.028 125.787 173.196 123.334C176.189 123.073 178.411 120.436 178.155 117.44L172.509 50.8017C174.34 50.7226 176.168 50.6173 178.005 50.6173C191.636 50.6173 205.06 52.7719 217.897 57.0199C220.752 57.9733 223.847 56.4155 224.79 53.5546C225.738 50.697 224.188 47.6102 221.327 46.6644C207.382 42.0488 192.803 39.7077 178.005 39.7077C154.224 39.7077 129.378 46.0993 107.687 58.9715C105.098 60.508 104.246 63.856 105.78 66.4448C107.336 69.058 110.693 69.8773 113.259 68.3517C128.101 59.5431 144.583 53.9064 161.64 51.693L166.846 113.168C135.716 118.543 112.055 146.14 112.055 178.26C112.055 214.671 141.64 244.293 178.005 244.293C179.315 244.293 180.595 244.172 181.887 244.096L183.427 269.48C159.468 270.902 135.706 262.71 117.669 246.743C116.492 245.707 114.92 245.211 113.376 245.417C111.82 245.611 110.425 246.463 109.541 247.76L92.4952 272.815C69.8299 252.203 55.1392 223.841 51.4743 193.575L76.6317 190.574C78.3101 204.422 82.773 217.827 89.8481 229.89C91.3721 232.496 94.7228 233.353 97.311 231.836C99.9106 230.313 100.778 226.97 99.255 224.371C91.0841 210.431 86.7641 194.485 86.7641 178.26C86.7641 143.789 105.86 112.588 136.601 96.8364C139.28 95.4619 140.34 92.1755 138.966 89.4935C137.591 86.8088 134.294 85.7544 131.626 87.1257C97.2243 104.755 75.3423 140.01 75.9019 179.673L44.8748 183.374C41.9665 183.723 39.8517 186.301 40.0808 189.217C43.0001 226.344 61.2227 261.314 90.0826 285.157C91.227 286.105 92.7374 286.567 94.3225 286.352C95.8459 286.134 97.2041 285.29 98.067 284.02L115.182 258.864C133.096 272.89 155.174 280.549 178.005 280.549C181.957 280.549 185.936 280.32 189.825 279.867C192.701 279.535 194.816 277.01 194.64 274.12L192.723 242.576C220.466 236.207 241.546 212.294 243.692 183.145L341.471 171.745C344.962 260.719 276.574 334.98 190.868 341.652C187.864 341.887 185.616 344.51 185.851 347.514C186.082 350.472 188.65 352.756 191.71 352.529C281.897 345.509 352.545 268.959 352.545 178.259C352.545 82.4151 274.638 3.45459 178 3.45459Z" fill="white"/>
<path d="M178 3.45459C98.9654 3.45459 32.0697 56.3528 10.6596 128.641C10.6317 128.708 10.5745 128.752 10.5494 128.821C10.4959 128.968 10.5226 129.116 10.4823 129.264C5.93756 144.821 3.4541 161.25 3.4541 178.259C3.4541 268.533 71.0076 343.315 160.592 352.202C163.559 352.522 166.265 350.311 166.558 347.312C166.856 344.316 164.667 341.645 161.668 341.346C150.825 340.27 140.334 338.146 130.272 335.111L138.636 311.093C151.372 314.886 164.593 316.806 178.006 316.806C238.787 316.806 294.091 275.679 311.04 216.299C311.855 213.433 310.219 210.44 307.364 209.58L272.688 199.136C271.297 198.718 269.768 198.878 268.49 199.579C267.206 200.285 266.258 201.477 265.865 202.889C262.115 216.296 255.179 228.894 245.82 239.318C243.807 241.558 243.993 245.008 246.236 247.021C248.468 249.032 251.93 248.856 253.938 246.605C263.17 236.33 270.286 224.159 274.723 211.142L298.964 218.443C288.827 248.984 267.566 273.854 240.619 289.176L225.024 260.058C223.602 257.405 220.284 256.396 217.642 257.826C214.984 259.248 213.982 262.553 215.404 265.208L230.91 294.161C214.62 301.67 196.672 305.897 178.006 305.897C163.97 305.897 150.174 303.617 136.995 299.118C134.161 298.154 131.066 299.656 130.081 302.485L119.945 331.592C57.5872 308.13 14.3632 248.171 14.3632 178.259C14.3632 164.317 16.1217 150.78 19.4081 137.849L47.9485 148.226C50.9419 149.312 54.2288 147.615 55.0754 144.54C59.9496 126.735 68.4723 110.495 80.409 96.267C82.3426 93.9602 82.0388 90.5195 79.7326 88.5831C77.421 86.644 73.9852 86.9533 72.0461 89.2568C60.3756 103.176 51.7088 118.873 46.233 135.993L22.4834 127.357C43.9159 61.8351 105.51 14.3642 178 14.3642C214.946 14.3642 249.062 26.7057 276.482 47.4695L237.522 95.3059C227.25 87.903 215.671 82.2842 203.115 79.0944C200.228 78.3515 197.224 80.1144 196.489 83.0386C195.743 85.9579 197.512 88.9246 200.431 89.6675C213.213 92.9151 224.949 98.8693 235.002 106.945C235.018 106.958 235.023 106.977 235.039 106.989C235.072 107.016 235.114 107.024 235.147 107.05C245.403 115.323 253.892 125.817 259.883 137.98C261.239 140.723 264.541 141.775 267.186 140.462C269.892 139.133 271 135.863 269.674 133.159C263.79 121.211 255.662 110.802 246.019 102.146L284.939 54.3608C315.503 80.86 336.216 118.454 340.706 160.852L315.543 163.785C313.561 144.646 307.76 126.447 298.161 109.647C296.67 107.034 293.335 106.115 290.719 107.617C288.104 109.111 287.193 112.443 288.69 115.059C297.551 130.571 302.897 147.377 304.706 165.048L243.568 172.176C241.774 152.882 231.627 135.17 215.506 123.965C213.034 122.25 209.635 122.855 207.915 125.332C206.195 127.806 206.807 131.204 209.284 132.925C224.151 143.261 233.03 160.208 233.03 178.26C233.03 208.655 208.346 233.384 178.006 233.384C147.654 233.384 122.965 208.655 122.965 178.26C122.965 149.914 145.028 125.787 173.196 123.334C176.189 123.073 178.411 120.436 178.155 117.44L172.509 50.8017C174.34 50.7226 176.168 50.6173 178.005 50.6173C191.636 50.6173 205.06 52.7719 217.897 57.0199C220.752 57.9733 223.847 56.4155 224.79 53.5546C225.738 50.697 224.188 47.6102 221.327 46.6644C207.382 42.0488 192.803 39.7077 178.005 39.7077C154.224 39.7077 129.378 46.0993 107.687 58.9715C105.098 60.508 104.246 63.856 105.78 66.4448C107.336 69.058 110.693 69.8773 113.259 68.3517C128.101 59.5431 144.583 53.9064 161.64 51.693L166.846 113.168C135.716 118.543 112.055 146.14 112.055 178.26C112.055 214.671 141.64 244.293 178.005 244.293C179.315 244.293 180.595 244.172 181.887 244.096L183.427 269.48C159.468 270.902 135.706 262.71 117.669 246.743C116.492 245.707 114.92 245.211 113.376 245.417C111.82 245.611 110.425 246.463 109.541 247.76L92.4952 272.815C69.8299 252.203 55.1392 223.841 51.4743 193.575L76.6317 190.574C78.3101 204.422 82.773 217.827 89.8481 229.89C91.3721 232.496 94.7228 233.353 97.311 231.836C99.9106 230.313 100.778 226.97 99.255 224.371C91.0841 210.431 86.7641 194.485 86.7641 178.26C86.7641 143.789 105.86 112.588 136.601 96.8364C139.28 95.4619 140.34 92.1755 138.966 89.4935C137.591 86.8088 134.294 85.7544 131.626 87.1257C97.2243 104.755 75.3423 140.01 75.9019 179.673L44.8748 183.374C41.9665 183.723 39.8517 186.301 40.0808 189.217C43.0001 226.344 61.2227 261.314 90.0826 285.157C91.227 286.105 92.7374 286.567 94.3225 286.352C95.8459 286.134 97.2041 285.29 98.067 284.02L115.182 258.864C133.096 272.89 155.174 280.549 178.005 280.549C181.957 280.549 185.936 280.32 189.825 279.867C192.701 279.535 194.816 277.01 194.64 274.12L192.723 242.576C220.466 236.207 241.546 212.294 243.692 183.145L341.471 171.745C344.962 260.719 276.574 334.98 190.868 341.652C187.864 341.887 185.616 344.51 185.851 347.514C186.082 350.472 188.65 352.756 191.71 352.529C281.897 345.509 352.545 268.959 352.545 178.259C352.545 82.4151 274.638 3.45459 178 3.45459Z" stroke="white" stroke-width="6"/>
<path d="M178 3.45459C98.9654 3.45459 32.0697 56.3528 10.6596 128.641C10.6317 128.708 10.5745 128.752 10.5494 128.821C10.4959 128.968 10.5226 129.116 10.4823 129.264C5.93756 144.821 3.4541 161.25 3.4541 178.259C3.4541 268.533 71.0076 343.315 160.592 352.202C163.559 352.522 166.265 350.311 166.558 347.312C166.856 344.316 164.667 341.645 161.668 341.346C150.825 340.27 140.334 338.146 130.272 335.111L138.636 311.093C151.372 314.886 164.593 316.806 178.006 316.806C238.787 316.806 294.091 275.679 311.04 216.299C311.855 213.433 310.219 210.44 307.364 209.58L272.688 199.136C271.297 198.718 269.768 198.878 268.49 199.579C267.206 200.285 266.258 201.477 265.865 202.889C262.115 216.296 255.179 228.894 245.82 239.318C243.807 241.558 243.993 245.008 246.236 247.021C248.468 249.032 251.93 248.856 253.938 246.605C263.17 236.33 270.286 224.159 274.723 211.142L298.964 218.443C288.827 248.984 267.566 273.854 240.619 289.176L225.024 260.058C223.602 257.405 220.284 256.396 217.642 257.826C214.984 259.248 213.982 262.553 215.404 265.208L230.91 294.161C214.62 301.67 196.672 305.897 178.006 305.897C163.97 305.897 150.174 303.617 136.995 299.118C134.161 298.154 131.066 299.656 130.081 302.485L119.945 331.592C57.5872 308.13 14.3632 248.171 14.3632 178.259C14.3632 164.317 16.1217 150.78 19.4081 137.849L47.9485 148.226C50.9419 149.312 54.2288 147.615 55.0754 144.54C59.9496 126.735 68.4723 110.495 80.409 96.267C82.3426 93.9602 82.0388 90.5195 79.7326 88.5831C77.421 86.644 73.9852 86.9533 72.0461 89.2568C60.3756 103.176 51.7088 118.873 46.233 135.993L22.4834 127.357C43.9159 61.8351 105.51 14.3642 178 14.3642C214.946 14.3642 249.062 26.7057 276.482 47.4695L237.522 95.3059C227.25 87.903 215.671 82.2842 203.115 79.0944C200.228 78.3515 197.224 80.1144 196.489 83.0386C195.743 85.9579 197.512 88.9246 200.431 89.6675C213.213 92.9151 224.949 98.8693 235.002 106.945C235.018 106.958 235.023 106.977 235.039 106.989C235.072 107.016 235.114 107.024 235.147 107.05C245.403 115.323 253.892 125.817 259.883 137.98C261.239 140.723 264.541 141.775 267.186 140.462C269.892 139.133 271 135.863 269.674 133.159C263.79 121.211 255.662 110.802 246.019 102.146L284.939 54.3608C315.503 80.86 336.216 118.454 340.706 160.852L315.543 163.785C313.561 144.646 307.76 126.447 298.161 109.647C296.67 107.034 293.335 106.115 290.719 107.617C288.104 109.111 287.193 112.443 288.69 115.059C297.551 130.571 302.897 147.377 304.706 165.048L243.568 172.176C241.774 152.882 231.627 135.17 215.506 123.965C213.034 122.25 209.635 122.855 207.915 125.332C206.195 127.806 206.807 131.204 209.284 132.925C224.151 143.261 233.03 160.208 233.03 178.26C233.03 208.655 208.346 233.384 178.006 233.384C147.654 233.384 122.965 208.655 122.965 178.26C122.965 149.914 145.028 125.787 173.196 123.334C176.189 123.073 178.411 120.436 178.155 117.44L172.509 50.8017C174.34 50.7226 176.168 50.6173 178.005 50.6173C191.636 50.6173 205.06 52.7719 217.897 57.0199C220.752 57.9733 223.847 56.4155 224.79 53.5546C225.738 50.697 224.188 47.6102 221.327 46.6644C207.382 42.0488 192.803 39.7077 178.005 39.7077C154.224 39.7077 129.378 46.0993 107.687 58.9715C105.098 60.508 104.246 63.856 105.78 66.4448C107.336 69.058 110.693 69.8773 113.259 68.3517C128.101 59.5431 144.583 53.9064 161.64 51.693L166.846 113.168C135.716 118.543 112.055 146.14 112.055 178.26C112.055 214.671 141.64 244.293 178.005 244.293C179.315 244.293 180.595 244.172 181.887 244.096L183.427 269.48C159.468 270.902 135.706 262.71 117.669 246.743C116.492 245.707 114.92 245.211 113.376 245.417C111.82 245.611 110.425 246.463 109.541 247.76L92.4952 272.815C69.8299 252.203 55.1392 223.841 51.4743 193.575L76.6317 190.574C78.3101 204.422 82.773 217.827 89.8481 229.89C91.3721 232.496 94.7228 233.353 97.311 231.836C99.9106 230.313 100.778 226.97 99.255 224.371C91.0841 210.431 86.7641 194.485 86.7641 178.26C86.7641 143.789 105.86 112.588 136.601 96.8364C139.28 95.4619 140.34 92.1755 138.966 89.4935C137.591 86.8088 134.294 85.7544 131.626 87.1257C97.2243 104.755 75.3423 140.01 75.9019 179.673L44.8748 183.374C41.9665 183.723 39.8517 186.301 40.0808 189.217C43.0001 226.344 61.2227 261.314 90.0826 285.157C91.227 286.105 92.7374 286.567 94.3225 286.352C95.8459 286.134 97.2041 285.29 98.067 284.02L115.182 258.864C133.096 272.89 155.174 280.549 178.005 280.549C181.957 280.549 185.936 280.32 189.825 279.867C192.701 279.535 194.816 277.01 194.64 274.12L192.723 242.576C220.466 236.207 241.546 212.294 243.692 183.145L341.471 171.745C344.962 260.719 276.574 334.98 190.868 341.652C187.864 341.887 185.616 344.51 185.851 347.514C186.082 350.472 188.65 352.756 191.71 352.529C281.897 345.509 352.545 268.959 352.545 178.259C352.545 82.4151 274.638 3.45459 178 3.45459Z" stroke="white" stroke-width="6"/>
</svg>
