<svg width="351" height="351" viewBox="0 0 351 351" fill="none" xmlns="http://www.w3.org/2000/svg">
<path d="M122.302 106.024C123.68 111.559 126.812 116.5 131.23 120.108C127.925 125.163 126.157 131.069 126.141 137.109V175.5C126.141 176.955 126.718 178.35 127.747 179.378C128.775 180.407 130.17 180.984 131.625 180.984H219.375C220.83 180.984 222.225 180.407 223.253 179.378C224.282 178.35 224.859 176.955 224.859 175.5V137.109C224.843 131.069 223.075 125.163 219.77 120.108C224.188 116.5 227.32 111.559 228.698 106.024L230.19 100.051C230.393 99.2419 230.408 98.3967 230.235 97.5803C230.062 96.7639 229.705 95.9978 229.19 95.3404C228.676 94.6829 228.019 94.1515 227.268 93.7865C226.518 93.4216 225.694 93.2327 224.859 93.2344C223.405 93.2344 222.01 92.6566 220.981 91.628C219.953 90.5995 219.375 89.2045 219.375 87.75V83.4722C221.099 81.9469 222.48 80.0727 223.425 77.9737C224.371 75.8748 224.86 73.599 224.86 71.2969C224.86 68.9948 224.371 66.7189 223.425 64.62C222.48 62.5211 221.099 60.6469 219.375 59.1216V49.3594C219.375 37.723 214.752 26.5632 206.524 18.3351C198.296 10.1069 187.136 5.48438 175.5 5.48438C163.864 5.48438 152.704 10.1069 144.476 18.3351C136.248 26.5632 131.625 37.723 131.625 49.3594V59.1216C129.901 60.6469 128.52 62.5211 127.575 64.62C126.629 66.7189 126.14 68.9948 126.14 71.2969C126.14 73.599 126.629 75.8748 127.575 77.9737C128.52 80.0727 129.901 81.9469 131.625 83.4722V87.75C131.625 89.2045 131.047 90.5995 130.019 91.628C128.99 92.6566 127.595 93.2344 126.141 93.2344C125.307 93.2344 124.484 93.4245 123.735 93.7901C122.986 94.1558 122.33 94.6875 121.817 95.3447C121.304 96.0019 120.948 96.7674 120.775 97.583C120.603 98.3986 120.618 99.2428 120.821 100.051L122.302 106.024ZM213.891 170.016H202.922V153.562H191.953V170.016H159.047V153.562H148.078V170.016H137.109V137.109C137.108 133.971 137.835 130.875 139.233 128.064C140.631 125.254 142.662 122.807 145.166 120.914L148.16 138.053C148.289 138.796 148.569 139.505 148.984 140.135C149.399 140.765 149.939 141.303 150.571 141.715C151.203 142.127 151.914 142.404 152.658 142.528C153.402 142.653 154.163 142.623 154.895 142.44L175.5 137.279L196.105 142.429C196.837 142.612 197.598 142.642 198.342 142.517C199.086 142.393 199.797 142.116 200.429 141.704C201.061 141.292 201.601 140.754 202.016 140.124C202.431 139.494 202.711 138.785 202.84 138.042L205.834 120.903C208.339 122.797 210.371 125.246 211.769 128.058C213.167 130.87 213.893 133.969 213.891 137.109V170.016ZM189.562 115.764L195.43 116.74L193.05 130.358L183.463 127.961L189.562 115.764ZM175.5 93.2344C169.682 93.2344 164.102 90.9231 159.988 86.809C155.874 82.695 153.562 77.1151 153.562 71.2969V60.3281H158.158C163.106 60.3327 167.976 59.093 172.319 56.7229C176.663 54.3529 180.34 50.9287 183.014 46.7653L197.438 57.5859V71.2969C197.438 77.1151 195.126 82.695 191.012 86.809C186.898 90.9231 181.318 93.2344 175.5 93.2344ZM175.5 104.203C177.339 104.192 179.173 104.027 180.984 103.71V108.393L175.5 119.362L170.016 108.393V103.71C171.827 104.027 173.661 104.192 175.5 104.203ZM161.438 115.764L167.537 127.961L157.95 130.358L155.57 116.74L161.438 115.764ZM218.19 102.788L218.042 103.364C217.176 106.844 215.126 109.915 212.245 112.051C208.249 109.022 203.582 106.999 198.639 106.156L191.953 105.042V99.7498C196.93 96.8629 201.066 92.7265 203.953 87.75H208.406C208.407 90.9346 209.332 94.0506 211.068 96.72C212.805 99.3893 215.279 101.497 218.19 102.788ZM208.406 71.2969V65.8125C209.861 65.8125 211.256 66.3903 212.284 67.4188C213.313 68.4474 213.891 69.8423 213.891 71.2969C213.891 72.7514 213.313 74.1464 212.284 75.1749C211.256 76.2034 209.861 76.7812 208.406 76.7812H207.913C208.23 74.9701 208.395 73.1356 208.406 71.2969ZM142.594 49.3594C142.594 40.6321 146.061 32.2623 152.232 26.0911C158.403 19.92 166.773 16.4531 175.5 16.4531C184.227 16.4531 192.597 19.92 198.768 26.0911C204.939 32.2623 208.406 40.6321 208.406 49.3594V54.8438C208.406 53.9923 208.208 53.1526 207.827 52.3911C207.446 51.6295 206.894 50.9671 206.212 50.4562L184.275 34.0031C183.58 33.4814 182.77 33.1324 181.914 32.9849C181.057 32.8375 180.177 32.8958 179.348 33.155C178.518 33.4143 177.762 33.8671 177.141 34.4761C176.521 35.085 176.054 35.8328 175.78 36.6576C174.55 40.3579 172.185 43.5767 169.022 45.8568C165.859 48.1369 162.058 49.3625 158.158 49.3594H148.078C146.624 49.3594 145.229 49.9372 144.2 50.9657C143.172 51.9942 142.594 53.3892 142.594 54.8438V49.3594ZM137.109 71.2969C137.109 69.8423 137.687 68.4474 138.716 67.4188C139.744 66.3903 141.139 65.8125 142.594 65.8125V71.2969C142.605 73.1356 142.77 74.9701 143.087 76.7812H142.594C141.139 76.7812 139.744 76.2034 138.716 75.1749C137.687 74.1464 137.109 72.7514 137.109 71.2969ZM147.047 87.75C149.934 92.7265 154.07 96.8629 159.047 99.7498V105.042L152.361 106.139C147.417 106.988 142.749 109.016 138.755 112.051C135.874 109.915 133.824 106.844 132.958 103.364L132.81 102.788C135.721 101.497 138.195 99.3893 139.932 96.72C141.668 94.0506 142.593 90.9346 142.594 87.75H147.047ZM94.1283 270.862L82.2656 269.376V264.281C87.2422 261.394 91.3786 257.258 94.2654 252.281H98.7188C102.046 252.293 105.298 251.293 108.043 249.412C110.788 247.532 112.896 244.861 114.086 241.754C115.276 238.647 115.493 235.251 114.708 232.018C113.922 228.785 112.171 225.867 109.688 223.653V208.406C109.682 203.446 107.999 198.633 104.912 194.75C101.826 190.867 97.5171 188.142 92.6859 187.017C91.5621 182.186 88.8371 177.876 84.9539 174.789C81.0706 171.703 76.2575 170.02 71.2969 170.016H54.8438C46.1191 170.024 37.7544 173.494 31.5851 179.663C25.4159 185.832 21.9462 194.197 21.9375 202.922V223.653C19.454 225.867 17.7031 228.785 16.9174 232.018C16.1318 235.251 16.3486 238.647 17.539 241.754C18.7294 244.861 20.8371 247.532 23.582 249.412C26.3269 251.293 29.579 252.293 32.9062 252.281H37.3596C40.2464 257.258 44.3828 261.394 49.3594 264.281V269.376L37.4967 270.862C28.6627 271.978 20.5383 276.276 14.6455 282.951C8.7527 289.626 5.49562 298.221 5.48438 307.125V340.031C5.48438 341.486 6.06219 342.881 7.09071 343.909C8.11923 344.938 9.5142 345.516 10.9688 345.516H120.656C122.111 345.516 123.506 344.938 124.534 343.909C125.563 342.881 126.141 341.486 126.141 340.031V307.125C126.129 298.221 122.872 289.626 116.979 282.951C111.087 276.276 102.962 271.978 94.1283 270.862ZM86.4776 280.959L82.8415 288.22C82.462 288.982 82.2648 289.821 82.2656 290.672V294.615L73.7758 292.493L79.9512 280.142L86.4776 280.959ZM98.7188 241.312H98.2252C98.5426 239.501 98.7077 237.667 98.7188 235.828V230.344C100.173 230.344 101.568 230.922 102.597 231.95C103.625 232.979 104.203 234.374 104.203 235.828C104.203 237.283 103.625 238.678 102.597 239.706C101.568 240.735 100.173 241.312 98.7188 241.312ZM32.9062 241.312C31.4517 241.312 30.0567 240.735 29.0282 239.706C27.9997 238.678 27.4219 237.283 27.4219 235.828C27.4219 234.374 27.9997 232.979 29.0282 231.95C30.0567 230.922 31.4517 230.344 32.9062 230.344V235.828C32.9173 237.667 33.0824 239.501 33.3998 241.312H32.9062ZM38.3906 213.891C36.9361 213.891 35.5411 214.468 34.5126 215.497C33.4841 216.525 32.9062 217.92 32.9062 219.375V202.922C32.9062 197.104 35.2175 191.524 39.3316 187.41C43.4457 183.296 49.0256 180.984 54.8438 180.984H71.2969C74.206 180.984 76.9959 182.14 79.053 184.197C81.11 186.254 82.2656 189.044 82.2656 191.953C82.2656 193.408 82.8434 194.803 83.872 195.831C84.9005 196.86 86.2955 197.438 87.75 197.438C90.6591 197.438 93.449 198.593 95.5061 200.65C97.5631 202.707 98.7188 205.497 98.7188 208.406V219.375C98.7188 218.524 98.5205 217.684 98.1397 216.922C97.759 216.161 97.2061 215.498 96.525 214.988L74.5875 198.534C73.8922 198.013 73.0828 197.664 72.2261 197.516C71.3694 197.369 70.4899 197.427 69.6602 197.686C68.8304 197.946 68.0742 198.398 67.4538 199.007C66.8335 199.616 66.3668 200.364 66.0922 201.189C64.8623 204.889 62.4979 208.108 59.3347 210.388C56.1715 212.668 52.3703 213.894 48.4709 213.891H38.3906ZM43.875 224.859H48.4709C53.4188 224.864 58.2884 223.624 62.6317 221.254C66.975 218.884 70.6526 215.46 73.3261 211.297L87.75 222.117V235.828C87.75 241.646 85.4387 247.226 81.3247 251.34C77.2106 255.454 71.6307 257.766 65.8125 257.766C59.9943 257.766 54.4144 255.454 50.3003 251.34C46.1863 247.226 43.875 241.646 43.875 235.828V224.859ZM65.8125 268.734C67.6512 268.723 69.4858 268.558 71.2969 268.241V272.924L65.8125 283.893L60.3281 272.924V268.241C62.1392 268.558 63.9738 268.723 65.8125 268.734ZM51.6738 280.142L57.8492 292.493L49.3594 294.615V290.672C49.3602 289.821 49.163 288.982 48.7835 288.22L45.1529 280.959L51.6738 280.142ZM115.172 334.547H104.203V318.094H93.2344V334.547H38.3906V318.094H27.4219V334.547H16.4531V307.125C16.4649 301.777 18.1503 296.567 21.2732 292.225C24.396 287.884 28.7995 284.629 33.866 282.917L38.3906 291.966V301.641C38.3906 302.474 38.5807 303.297 38.9464 304.046C39.3121 304.795 39.8437 305.451 40.5009 305.964C41.1582 306.477 41.9237 306.833 42.7392 307.006C43.5548 307.179 44.399 307.163 45.2077 306.96L65.8125 301.811L86.4173 306.96C87.226 307.163 88.0702 307.179 88.8858 307.006C89.7013 306.833 90.4668 306.477 91.1241 305.964C91.7813 305.451 92.3129 304.795 92.6786 304.046C93.0443 303.297 93.2344 302.474 93.2344 301.641V291.966L97.759 282.917C102.825 284.629 107.229 287.884 110.352 292.225C113.475 296.567 115.16 301.777 115.172 307.125V334.547ZM313.503 270.862L301.641 269.376V264.281C306.617 261.394 310.754 257.258 313.64 252.281H318.094C321.421 252.293 324.673 251.293 327.418 249.412C330.163 247.532 332.271 244.861 333.461 241.754C334.651 238.647 334.868 235.251 334.083 232.018C333.297 228.785 331.546 225.867 329.062 223.653V208.406C329.057 203.446 327.374 198.633 324.287 194.75C321.201 190.867 316.892 188.142 312.061 187.017C310.937 182.186 308.212 177.876 304.329 174.789C300.446 171.703 295.632 170.02 290.672 170.016H274.219C265.494 170.024 257.129 173.494 250.96 179.663C244.791 185.832 241.321 194.197 241.312 202.922V223.653C238.829 225.867 237.078 228.785 236.292 232.018C235.507 235.251 235.724 238.647 236.914 241.754C238.104 244.861 240.212 247.532 242.957 249.412C245.702 251.293 248.954 252.293 252.281 252.281H256.735C259.621 257.258 263.758 261.394 268.734 264.281V269.376L256.872 270.862C248.038 271.978 239.913 276.276 234.021 282.951C228.128 289.626 224.871 298.221 224.859 307.125V340.031C224.859 341.486 225.437 342.881 226.466 343.909C227.494 344.938 228.889 345.516 230.344 345.516H340.031C341.486 345.516 342.881 344.938 343.909 343.909C344.938 342.881 345.516 341.486 345.516 340.031V307.125C345.504 298.221 342.247 289.626 336.354 282.951C330.462 276.276 322.337 271.978 313.503 270.862ZM305.853 280.959L302.216 288.22C301.837 288.982 301.64 289.821 301.641 290.672V294.615L293.151 292.493L299.326 280.142L305.853 280.959ZM318.094 241.312H317.6C317.918 239.501 318.083 237.667 318.094 235.828V230.344C319.548 230.344 320.943 230.922 321.972 231.95C323 232.979 323.578 234.374 323.578 235.828C323.578 237.283 323 238.678 321.972 239.706C320.943 240.735 319.548 241.312 318.094 241.312ZM252.281 241.312C250.827 241.312 249.432 240.735 248.403 239.706C247.375 238.678 246.797 237.283 246.797 235.828C246.797 234.374 247.375 232.979 248.403 231.95C249.432 230.922 250.827 230.344 252.281 230.344V235.828C252.292 237.667 252.457 239.501 252.775 241.312H252.281ZM257.766 213.891C256.311 213.891 254.916 214.468 253.888 215.497C252.859 216.525 252.281 217.92 252.281 219.375V202.922C252.281 197.104 254.593 191.524 258.707 187.41C262.821 183.296 268.401 180.984 274.219 180.984H290.672C293.581 180.984 296.371 182.14 298.428 184.197C300.485 186.254 301.641 189.044 301.641 191.953C301.641 193.408 302.218 194.803 303.247 195.831C304.275 196.86 305.67 197.438 307.125 197.438C310.034 197.438 312.824 198.593 314.881 200.65C316.938 202.707 318.094 205.497 318.094 208.406V219.375C318.094 218.524 317.896 217.684 317.515 216.922C317.134 216.161 316.581 215.498 315.9 214.988L293.962 198.534C293.267 198.013 292.458 197.664 291.601 197.516C290.744 197.369 289.865 197.427 289.035 197.686C288.205 197.946 287.449 198.398 286.829 199.007C286.208 199.616 285.742 200.364 285.467 201.189C284.237 204.889 281.873 208.108 278.71 210.388C275.546 212.668 271.745 213.894 267.846 213.891H257.766ZM263.25 224.859H267.846C272.794 224.864 277.663 223.624 282.007 221.254C286.35 218.884 290.028 215.46 292.701 211.297L307.125 222.117V235.828C307.125 241.646 304.814 247.226 300.7 251.34C296.586 255.454 291.006 257.766 285.188 257.766C279.369 257.766 273.789 255.454 269.675 251.34C265.561 247.226 263.25 241.646 263.25 235.828V224.859ZM285.188 268.734C287.026 268.723 288.861 268.558 290.672 268.241V272.924L285.188 283.893L279.703 272.924V268.241C281.514 268.558 283.349 268.723 285.188 268.734ZM271.049 280.142L277.224 292.493L268.734 294.615V290.672C268.744 289.823 268.556 288.984 268.186 288.22L264.555 280.959L271.049 280.142ZM334.547 334.547H323.578V318.094H312.609V334.547H257.766V318.094H246.797V334.547H235.828V307.125C235.84 301.777 237.525 296.567 240.648 292.225C243.771 287.884 248.175 284.629 253.241 282.917L257.766 291.966V301.641C257.766 302.474 257.956 303.297 258.321 304.046C258.687 304.795 259.219 305.451 259.876 305.964C260.533 306.477 261.299 306.833 262.114 307.006C262.93 307.179 263.774 307.163 264.583 306.96L285.188 301.811L305.792 306.96C306.601 307.163 307.445 307.179 308.261 307.006C309.076 306.833 309.842 306.477 310.499 305.964C311.156 305.451 311.688 304.795 312.054 304.046C312.419 303.297 312.609 302.474 312.609 301.641V291.966L317.134 282.917C322.2 284.629 326.604 287.884 329.727 292.225C332.85 296.567 334.535 301.777 334.547 307.125V334.547ZM175.5 191.953C145.259 191.953 120.656 211.637 120.656 235.828C120.893 242.724 122.86 249.45 126.377 255.386C129.895 261.323 134.849 266.279 140.784 269.798L137.274 283.855C137.012 284.874 137.048 285.948 137.379 286.947C137.711 287.947 138.322 288.83 139.142 289.49C139.961 290.151 140.954 290.563 142.001 290.675C143.047 290.787 144.104 290.596 145.045 290.123L166.917 279.155C169.764 279.517 172.63 279.7 175.5 279.703C205.741 279.703 230.344 260.02 230.344 235.828C230.344 211.637 205.741 191.953 175.5 191.953ZM175.5 268.734C172.592 268.731 169.688 268.507 166.813 268.065C165.688 267.894 164.538 268.076 163.522 268.586L150.798 274.948L152.405 268.52C152.699 267.345 152.595 266.105 152.11 264.995C151.625 263.885 150.786 262.966 149.723 262.383C144.598 259.993 140.212 256.265 137.027 251.592C133.842 246.918 131.976 241.473 131.625 235.828C131.625 217.68 151.308 202.922 175.5 202.922C199.692 202.922 219.375 217.68 219.375 235.828C219.375 253.976 199.692 268.734 175.5 268.734Z" fill="white"/>
<path d="M159.047 230.344H148.078V241.312H159.047V230.344Z" fill="white"/>
<path d="M180.984 230.344H170.016V241.312H180.984V230.344Z" fill="white"/>
<path d="M202.922 230.344H191.953V241.312H202.922V230.344Z" fill="white"/>
<path d="M60.3281 153.562H82.2656V142.594H73.5674L102.596 113.565L94.8413 105.81L65.8125 134.839V126.141H54.8438V148.078C54.8438 149.533 55.4216 150.928 56.4501 151.956C57.4786 152.985 58.8736 153.562 60.3281 153.562ZM257.766 122.927L286.794 151.956L294.549 144.201L265.521 115.172H274.219V104.203H252.281C250.827 104.203 249.432 104.781 248.403 105.809C247.375 106.838 246.797 108.233 246.797 109.688V131.625H257.766V122.927ZM195.831 297.763L188.076 305.518L195.167 312.609H142.594V323.578H195.167L188.076 330.669L195.831 338.424L212.284 321.971C213.312 320.943 213.889 319.548 213.889 318.094C213.889 316.639 213.312 315.245 212.284 314.216L195.831 297.763Z" fill="white"/>
</svg>
