<svg width="800" height="800" viewBox="0 0 800 800" fill="none" xmlns="http://www.w3.org/2000/svg">
<path d="M713.4 165.24L657.927 122.145C649.393 116.62 641.926 113.305 632.325 113.305H442.438V90.1C442.438 77.945 432.837 68 421.103 68H378.431C366.697 68 357.096 77.945 357.096 90.1V112.2H143.74C132.005 112.2 122.404 122.145 122.404 134.3V222.7C122.404 234.855 132.005 244.8 143.74 244.8H632.325C641.926 244.8 651.527 242.59 657.927 235.96L713.4 192.865C721.934 185.13 721.934 171.87 713.4 165.24ZM655.794 355.3H442.438V322.15C442.438 315.52 438.171 311.1 431.77 311.1H367.764C361.363 311.1 357.096 315.52 357.096 322.15V355.3H168.276C158.675 355.3 149.074 357.51 142.673 364.14L87.2008 407.235C77.5997 413.865 77.5997 428.23 87.2008 435.965L142.673 479.06C151.207 484.585 158.675 487.9 168.276 487.9H655.794C667.529 487.9 677.13 477.955 677.13 465.8V377.4C677.13 365.245 667.529 355.3 655.794 355.3ZM442.438 638.18V584.035C442.438 577.405 438.171 572.985 431.77 572.985H367.764C361.363 572.985 357.096 577.405 357.096 584.035V638.18C314.425 650.335 290.956 676.855 283.488 710.005C281.355 719.95 288.822 731 299.49 731H501.111C511.779 731 520.313 721.055 517.113 710.005C509.645 676.855 485.109 651.44 442.438 638.18Z" fill="white"/>
</svg>
