<svg width="800" height="800" viewBox="0 0 800 800" fill="none" xmlns="http://www.w3.org/2000/svg">
<g clip-path="url(#clip0_442_1459)">
<path d="M604.062 501.25C633.057 501.25 656.562 477.745 656.562 448.75C656.562 419.755 633.057 396.25 604.062 396.25C575.068 396.25 551.562 419.755 551.562 448.75C551.562 477.745 575.068 501.25 604.062 501.25Z" fill="white"/>
<path d="M539.375 631.875C568.37 631.875 591.875 608.37 591.875 579.375C591.875 550.38 568.37 526.875 539.375 526.875C510.38 526.875 486.875 550.38 486.875 579.375C486.875 608.37 510.38 631.875 539.375 631.875Z" fill="white"/>
<path d="M455.625 641.562H396.563H337.5C301.563 641.562 279.062 671.25 279.062 708.437V800H319.375V719.062C319.375 715.312 322.5 712.812 325.625 712.812C329.375 712.812 331.875 715.312 331.875 719.062V799.687H461.563V719.062C461.563 715.312 464.688 712.812 467.813 712.812C471.563 712.812 474.063 715.937 474.063 719.062V799.687H514.375V708.75C515 671.25 492.187 641.562 455.625 641.562Z" fill="white"/>
<path d="M470.312 501.25C499.307 501.25 522.812 477.745 522.812 448.75C522.812 419.755 499.307 396.25 470.312 396.25C441.318 396.25 417.812 419.755 417.812 448.75C417.812 477.745 441.318 501.25 470.312 501.25Z" fill="white"/>
<path d="M624.688 579.375C624.688 608.438 648.125 631.875 677.187 631.875C706.25 631.875 729.687 608.438 729.687 579.375C729.687 550.313 706.25 526.875 677.187 526.875C648.125 526.875 624.688 550.313 624.688 579.375Z" fill="white"/>
<path d="M619.375 641.563C583.438 641.563 560.938 671.25 560.938 708.438V800H601.25V719.063C601.25 715.313 604.375 712.813 607.5 712.813C611.25 712.813 613.75 715.313 613.75 719.063V799.688H743.438V719.063C743.438 715.313 746.563 712.813 749.688 712.813C753.438 712.813 755.938 715.938 755.938 719.063V799.688H796.25V708.75C796.875 670.938 774.062 641.25 737.812 641.25H678.75H619.375V641.563Z" fill="white"/>
<path d="M126.875 631.875C155.87 631.875 179.375 608.37 179.375 579.375C179.375 550.38 155.87 526.875 126.875 526.875C97.88 526.875 74.375 550.38 74.375 579.375C74.375 608.37 97.88 631.875 126.875 631.875Z" fill="white"/>
<path d="M48.75 799.688V719.063C48.75 715.313 51.875 712.813 55 712.813C58.75 712.813 61.25 715.313 61.25 719.063V799.688H190.937V719.063C190.937 715.313 194.062 712.813 197.187 712.813C200.937 712.813 203.437 715.938 203.437 719.063V799.688H243.75V708.75C244.375 670.938 221.563 641.25 185.312 641.25H126.25H67.1875C31.25 641.25 8.75 670.938 8.75 708.125V799.688H48.75Z" fill="white"/>
<path d="M344.062 579.375C344.062 608.438 367.5 631.875 396.563 631.875C425.625 631.875 449.063 608.438 449.063 579.375C449.063 550.313 425.625 526.875 396.563 526.875C367.5 526.875 344.062 550.313 344.062 579.375Z" fill="white"/>
<path d="M194.062 501.25C223.057 501.25 246.563 477.745 246.563 448.75C246.563 419.755 223.057 396.25 194.062 396.25C165.068 396.25 141.562 419.755 141.562 448.75C141.562 477.745 165.068 501.25 194.062 501.25Z" fill="white"/>
<path d="M335.937 501.25C364.932 501.25 388.437 477.745 388.437 448.75C388.437 419.755 364.932 396.25 335.937 396.25C306.943 396.25 283.438 419.755 283.438 448.75C283.438 477.745 306.943 501.25 335.937 501.25Z" fill="white"/>
<path d="M265.313 631.875C294.308 631.875 317.813 608.37 317.813 579.375C317.813 550.38 294.308 526.875 265.313 526.875C236.318 526.875 212.812 550.38 212.812 579.375C212.812 608.37 236.318 631.875 265.313 631.875Z" fill="white"/>
<path d="M400 117.5C332.625 117.5 277.5 172.625 277.5 240C277.5 307.375 332.625 362.5 400 362.5C467.375 362.5 522.5 307.375 522.5 240C522.5 172.625 467.375 117.5 400 117.5ZM426.25 205C426.25 199.75 429.75 196.25 435 196.25C440.25 196.25 443.75 199.75 443.75 205V240C443.75 245.25 440.25 248.75 435 248.75C429.75 248.75 426.25 245.25 426.25 240V205ZM356.25 205C356.25 199.75 359.75 196.25 365 196.25C370.25 196.25 373.75 199.75 373.75 205V240C373.75 245.25 370.25 248.75 365 248.75C359.75 248.75 356.25 245.25 356.25 240V205ZM452.5 289.875C450.75 291.625 448.125 292.5 445.5 292.5C443.75 292.5 441.125 291.625 439.375 290.75C428.875 280.25 414.875 275 400 275C385.125 275 371.125 280.25 359.75 290.75C356.25 294.25 351 293.375 347.5 289.875C344 286.375 344.875 281.125 348.375 277.625C362.375 264.5 381.625 258.375 400 258.375C418.375 258.375 437.625 265.375 451.625 277.625C456 280.25 456 285.5 452.5 289.875Z" fill="white"/>
</g>
<defs>
<clipPath id="clip0_442_1459">
<rect width="800" height="800" fill="white"/>
</clipPath>
</defs>
</svg>
