<svg width="800" height="800" viewBox="0 0 800 800" fill="none" xmlns="http://www.w3.org/2000/svg">
<g clip-path="url(#clip0_442_1414)">
<path d="M506.858 294.157C494.181 294.157 483.9 283.312 483.9 269.973C483.9 256.634 494.181 245.788 506.858 245.788C519.536 245.788 529.816 256.634 529.816 269.973C529.816 283.312 519.536 294.157 506.858 294.157ZM506.858 213.449C477.242 213.449 453.219 238.727 453.219 269.889C453.219 301.051 477.215 326.328 506.858 326.328C536.475 326.328 560.498 301.079 560.498 269.889C560.498 238.698 536.475 213.449 506.858 213.449Z" fill="white"/>
<path d="M130.343 294.156C117.665 294.128 107.385 283.311 107.385 269.972C107.385 256.632 117.665 245.815 130.343 245.787C143.02 245.787 153.301 256.632 153.301 269.972C153.301 283.311 143.02 294.156 130.343 294.156ZM130.343 213.448C100.726 213.448 76.7031 238.725 76.7031 269.887C76.7031 301.05 100.7 326.327 130.343 326.327C159.959 326.327 183.982 301.078 183.982 269.887V269.859C183.982 238.697 159.959 213.42 130.343 213.42H130.289L130.343 213.448Z" fill="white"/>
<path d="M306.471 135.514L302.662 61.5316H361.309L441.822 135.514H306.471ZM283.726 135.514H191.521L223.668 61.5316H283.699L283.726 135.514ZM158.682 135.514H130.344L183.984 61.5316H201.029L158.682 135.514ZM623.701 196.045L618.907 179.847C613.82 163.089 600.424 150.591 583.964 147.592L583.698 147.564L470.186 127.667L387.41 53.5169C379.606 46.4829 369.379 42.1953 358.22 42.1953C358.193 42.1953 358.166 42.1953 358.14 42.1953H191.947C176.367 42.1953 162.544 50.2661 154.101 62.6245L153.995 62.7646L104.617 135.822L52.575 141.427C38.0065 143.08 26.2879 154.15 22.9587 168.694L22.9054 168.946L15.1285 204.228C15.1018 204.228 15.0752 204.228 15.0486 204.228C10.0681 204.228 5.67362 206.778 2.95702 210.729L2.93038 210.785C1.11931 213.363 0.0273438 216.586 0.0273438 220.061C0.0273438 221.827 0.293677 223.536 0.826345 225.133L0.799712 225.021L5.59372 240.126C11.24 257.557 26.6874 269.887 44.8513 269.887H59.6062C59.6062 228.776 91.2733 195.456 130.318 195.456C169.389 195.456 201.056 228.776 201.056 269.887H436.122C436.122 228.776 467.789 195.456 506.86 195.456C545.932 195.456 577.625 228.776 577.625 269.887H589.823C610.305 269.887 627.616 255.623 633.262 236.007L633.342 235.67L638.616 217.007C639.015 215.633 639.255 214.036 639.255 212.411C639.255 208.712 638.083 205.321 636.139 202.574L636.166 202.602C633.289 198.623 628.788 196.045 623.728 196.045H623.701Z" fill="white"/>
</g>
<g clip-path="url(#clip1_442_1414)">
<path d="M636.858 764.157C624.181 764.157 613.9 753.312 613.9 739.973C613.9 726.634 624.181 715.788 636.858 715.788C649.536 715.788 659.816 726.634 659.816 739.973C659.816 753.312 649.536 764.157 636.858 764.157ZM636.858 683.449C607.242 683.449 583.219 708.727 583.219 739.889C583.219 771.051 607.215 796.328 636.858 796.328C666.475 796.328 690.498 771.079 690.498 739.889C690.498 708.698 666.475 683.449 636.858 683.449Z" fill="white"/>
<path d="M260.343 764.156C247.665 764.128 237.385 753.311 237.385 739.972C237.385 726.632 247.665 715.815 260.343 715.787C273.02 715.787 283.301 726.632 283.301 739.972C283.301 753.311 273.02 764.156 260.343 764.156ZM260.343 683.448C230.726 683.448 206.703 708.725 206.703 739.887C206.703 771.05 230.7 796.327 260.343 796.327C289.959 796.327 313.982 771.078 313.982 739.887V739.859C313.982 708.697 289.959 683.42 260.343 683.42H260.289L260.343 683.448Z" fill="white"/>
<path d="M436.471 605.514L432.662 531.532H491.309L571.822 605.514H436.471ZM413.726 605.514H321.521L353.668 531.532H413.699L413.726 605.514ZM288.682 605.514H260.344L313.984 531.532H331.029L288.682 605.514ZM753.701 666.045L748.907 649.847C743.82 633.089 730.424 620.591 713.964 617.592L713.698 617.564L600.186 597.667L517.41 523.517C509.606 516.483 499.379 512.195 488.22 512.195C488.193 512.195 488.166 512.195 488.14 512.195H321.947C306.367 512.195 292.544 520.266 284.101 532.625L283.995 532.765L234.617 605.822L182.575 611.427C168.007 613.08 156.288 624.15 152.959 638.694L152.905 638.946L145.128 674.228C145.102 674.228 145.075 674.228 145.049 674.228C140.068 674.228 135.674 676.778 132.957 680.729L132.93 680.785C131.119 683.363 130.027 686.586 130.027 690.061C130.027 691.827 130.294 693.536 130.826 695.133L130.8 695.021L135.594 710.126C141.24 727.557 156.687 739.887 174.851 739.887H189.606C189.606 698.776 221.273 665.456 260.318 665.456C299.389 665.456 331.056 698.776 331.056 739.887H566.122C566.122 698.776 597.789 665.456 636.86 665.456C675.932 665.456 707.625 698.776 707.625 739.887H719.823C740.305 739.887 757.616 725.623 763.262 706.007L763.342 705.67L768.616 687.007C769.015 685.633 769.255 684.036 769.255 682.411C769.255 678.712 768.083 675.321 766.139 672.574L766.166 672.602C763.289 668.623 758.788 666.045 753.728 666.045H753.701Z" fill="white"/>
</g>
<path d="M372.094 491C382.103 445.302 238.702 350.668 238.823 326.001" stroke="white" stroke-width="15" stroke-dasharray="37 37"/>
<path d="M346.619 400.124L341.733 423.532L363.319 412.705L383.215 427.692L347.252 444.307L341.932 484.005L322.181 469.127L326.089 444.299L303.593 455.124L283.552 440.027L320.386 424.068L326.578 385.027L346.619 400.124Z" fill="white"/>
<defs>
<clipPath id="clip0_442_1414">
<rect width="640" height="285" fill="white" transform="translate(0 42)"/>
</clipPath>
<clipPath id="clip1_442_1414">
<rect width="640" height="285" fill="white" transform="translate(130 512)"/>
</clipPath>
</defs>
</svg>
