<svg width="635" height="349" viewBox="0 0 635 349" fill="none" xmlns="http://www.w3.org/2000/svg">
<rect width="635" height="349" fill="black"/>
<rect x="61.4142" y="174.401" width="181" height="181" rx="1" transform="rotate(-45 61.4142 174.401)" stroke="white" stroke-width="2"/>
<rect x="318.215" y="174.401" width="181" height="181" rx="1" transform="rotate(-45 318.215 174.401)" stroke="white" stroke-width="2"/>
<circle cx="60" cy="175" r="10" fill="white"/>
<circle cx="319" cy="175" r="10" fill="white"/>
<circle cx="578" cy="175" r="10" fill="white"/>
<path d="M77.3777 329V314.8H82.1977C83.7043 314.8 84.9577 315.12 85.9577 315.76C86.971 316.387 87.731 317.24 88.2377 318.32C88.7443 319.387 88.9977 320.573 88.9977 321.88C88.9977 323.32 88.7177 324.573 88.1577 325.64C87.611 326.707 86.8243 327.533 85.7977 328.12C84.7843 328.707 83.5843 329 82.1977 329H77.3777ZM87.5977 321.88C87.5977 320.747 87.3843 319.74 86.9577 318.86C86.5443 317.98 85.9377 317.293 85.1377 316.8C84.3377 316.293 83.3577 316.04 82.1977 316.04H78.7777V327.76H82.1977C83.371 327.76 84.3577 327.5 85.1577 326.98C85.9577 326.46 86.5643 325.76 86.9777 324.88C87.391 323.987 87.5977 322.987 87.5977 321.88ZM91.3945 329V318.58H92.7545V329H91.3945ZM91.3945 316.4V314.4H92.7545V316.4H91.3945ZM99.17 329.2C98.3167 329.2 97.5233 329.06 96.79 328.78C96.0567 328.5 95.4233 328.073 94.89 327.5L95.45 326.54C96.0367 327.087 96.6233 327.487 97.21 327.74C97.81 327.98 98.4433 328.1 99.11 328.1C99.9233 328.1 100.583 327.94 101.09 327.62C101.597 327.287 101.85 326.813 101.85 326.2C101.85 325.787 101.723 325.473 101.47 325.26C101.23 325.033 100.877 324.853 100.41 324.72C99.9567 324.573 99.41 324.42 98.77 324.26C98.05 324.06 97.4433 323.853 96.95 323.64C96.47 323.413 96.1033 323.133 95.85 322.8C95.61 322.453 95.49 322.007 95.49 321.46C95.49 320.78 95.6567 320.22 95.99 319.78C96.3367 319.327 96.8033 318.987 97.39 318.76C97.99 318.52 98.6567 318.4 99.39 318.4C100.19 318.4 100.897 318.527 101.51 318.78C102.123 319.033 102.623 319.387 103.01 319.84L102.35 320.76C101.977 320.333 101.53 320.02 101.01 319.82C100.503 319.607 99.9367 319.5 99.31 319.5C98.8833 319.5 98.4767 319.56 98.09 319.68C97.7033 319.787 97.3833 319.973 97.13 320.24C96.89 320.493 96.77 320.847 96.77 321.3C96.77 321.673 96.8633 321.967 97.05 322.18C97.2367 322.38 97.5167 322.553 97.89 322.7C98.2633 322.833 98.7233 322.98 99.27 323.14C100.057 323.353 100.743 323.573 101.33 323.8C101.917 324.013 102.37 324.293 102.69 324.64C103.01 324.987 103.17 325.473 103.17 326.1C103.17 327.073 102.803 327.833 102.07 328.38C101.337 328.927 100.37 329.2 99.17 329.2ZM109.938 329.2C109.178 329.2 108.478 329.06 107.838 328.78C107.211 328.487 106.658 328.087 106.178 327.58C105.711 327.073 105.345 326.493 105.078 325.84C104.825 325.187 104.698 324.493 104.698 323.76C104.698 322.773 104.918 321.873 105.358 321.06C105.798 320.247 106.411 319.6 107.198 319.12C107.985 318.64 108.891 318.4 109.918 318.4C110.891 318.4 111.751 318.627 112.498 319.08C113.245 319.52 113.798 320.12 114.158 320.88L112.838 321.3C112.545 320.767 112.131 320.353 111.598 320.06C111.078 319.753 110.498 319.6 109.858 319.6C109.165 319.6 108.531 319.78 107.958 320.14C107.385 320.5 106.925 320.993 106.578 321.62C106.245 322.247 106.078 322.96 106.078 323.76C106.078 324.547 106.251 325.26 106.598 325.9C106.945 326.54 107.405 327.053 107.978 327.44C108.551 327.813 109.185 328 109.878 328C110.331 328 110.765 327.92 111.178 327.76C111.605 327.6 111.971 327.387 112.278 327.12C112.598 326.84 112.811 326.54 112.918 326.22L114.258 326.62C114.071 327.113 113.758 327.56 113.318 327.96C112.891 328.347 112.385 328.653 111.798 328.88C111.225 329.093 110.605 329.2 109.938 329.2ZM120.737 329.2C119.99 329.2 119.297 329.06 118.657 328.78C118.03 328.487 117.484 328.093 117.017 327.6C116.564 327.093 116.21 326.52 115.957 325.88C115.704 325.227 115.577 324.54 115.577 323.82C115.577 323.073 115.704 322.38 115.957 321.74C116.21 321.087 116.57 320.513 117.037 320.02C117.504 319.513 118.05 319.12 118.677 318.84C119.317 318.547 120.01 318.4 120.757 318.4C121.504 318.4 122.19 318.547 122.817 318.84C123.444 319.12 123.99 319.513 124.457 320.02C124.924 320.513 125.284 321.087 125.537 321.74C125.79 322.38 125.917 323.073 125.917 323.82C125.917 324.54 125.79 325.227 125.537 325.88C125.284 326.52 124.924 327.093 124.457 327.6C124.004 328.093 123.457 328.487 122.817 328.78C122.19 329.06 121.497 329.2 120.737 329.2ZM116.957 323.84C116.957 324.613 117.124 325.32 117.457 325.96C117.804 326.587 118.264 327.087 118.837 327.46C119.41 327.82 120.044 328 120.737 328C121.43 328 122.064 327.813 122.637 327.44C123.21 327.067 123.67 326.56 124.017 325.92C124.364 325.267 124.537 324.56 124.537 323.8C124.537 323.027 124.364 322.32 124.017 321.68C123.67 321.04 123.21 320.533 122.637 320.16C122.064 319.787 121.43 319.6 120.737 319.6C120.044 319.6 119.41 319.793 118.837 320.18C118.277 320.567 117.824 321.08 117.477 321.72C117.13 322.347 116.957 323.053 116.957 323.84ZM130.94 329L126.72 318.58H128.14L131.7 327.64L135.28 318.58H136.62L132.4 329H130.94ZM142.652 329.2C141.906 329.2 141.212 329.06 140.572 328.78C139.932 328.487 139.379 328.093 138.912 327.6C138.446 327.093 138.079 326.513 137.812 325.86C137.559 325.207 137.432 324.507 137.432 323.76C137.432 322.787 137.652 321.893 138.092 321.08C138.546 320.267 139.166 319.62 139.952 319.14C140.739 318.647 141.632 318.4 142.632 318.4C143.659 318.4 144.552 318.647 145.312 319.14C146.086 319.633 146.692 320.287 147.132 321.1C147.572 321.9 147.792 322.78 147.792 323.74C147.792 323.847 147.792 323.953 147.792 324.06C147.792 324.153 147.786 324.227 147.772 324.28H138.852C138.919 325.027 139.126 325.693 139.472 326.28C139.832 326.853 140.292 327.313 140.852 327.66C141.426 327.993 142.046 328.16 142.712 328.16C143.392 328.16 144.032 327.987 144.632 327.64C145.246 327.293 145.672 326.84 145.912 326.28L147.092 326.6C146.879 327.093 146.552 327.54 146.112 327.94C145.672 328.34 145.152 328.653 144.552 328.88C143.966 329.093 143.332 329.2 142.652 329.2ZM138.812 323.3H146.512C146.459 322.54 146.252 321.873 145.892 321.3C145.546 320.727 145.086 320.28 144.512 319.96C143.952 319.627 143.332 319.46 142.652 319.46C141.972 319.46 141.352 319.627 140.792 319.96C140.232 320.28 139.772 320.733 139.412 321.32C139.066 321.893 138.866 322.553 138.812 323.3ZM155.091 319.78C154.184 319.807 153.384 320.06 152.691 320.54C152.011 321.02 151.531 321.68 151.251 322.52V329H149.891V318.58H151.171V321.08C151.531 320.347 152.004 319.753 152.591 319.3C153.191 318.847 153.824 318.593 154.491 318.54C154.624 318.527 154.737 318.52 154.831 318.52C154.937 318.52 155.024 318.527 155.091 318.54V319.78Z" fill="white"/>
<path d="M14.4675 145V133.64H19.2355C19.7475 133.64 20.2168 133.747 20.6435 133.96C21.0702 134.173 21.4435 134.456 21.7635 134.808C22.0835 135.16 22.3288 135.555 22.4995 135.992C22.6702 136.429 22.7555 136.877 22.7555 137.336C22.7555 137.965 22.6115 138.568 22.3235 139.144C22.0462 139.709 21.6462 140.168 21.1235 140.52C20.6115 140.872 20.0142 141.048 19.3315 141.048H16.2595V145H14.4675ZM16.2595 139.464H19.2195C19.5608 139.464 19.8595 139.373 20.1155 139.192C20.3715 139 20.5688 138.744 20.7075 138.424C20.8568 138.104 20.9315 137.741 20.9315 137.336C20.9315 136.92 20.8462 136.552 20.6755 136.232C20.5048 135.912 20.2808 135.667 20.0035 135.496C19.7368 135.315 19.4435 135.224 19.1235 135.224H16.2595V139.464ZM28.9163 138.152C28.2336 138.163 27.6256 138.317 27.0923 138.616C26.5696 138.915 26.1963 139.336 25.9723 139.88V145H24.2122V136.632H25.8443V138.504C26.1323 137.928 26.5109 137.469 26.9803 137.128C27.4496 136.776 27.9456 136.584 28.4683 136.552C28.5749 136.552 28.6603 136.552 28.7243 136.552C28.7989 136.552 28.8629 136.557 28.9163 136.568V138.152ZM33.8004 145.16C33.139 145.16 32.547 145.048 32.0244 144.824C31.5017 144.589 31.0484 144.269 30.6644 143.864C30.291 143.459 30.003 143 29.8004 142.488C29.5977 141.965 29.4964 141.411 29.4964 140.824C29.4964 140.237 29.5977 139.683 29.8004 139.16C30.003 138.637 30.291 138.179 30.6644 137.784C31.0484 137.379 31.5017 137.064 32.0244 136.84C32.5577 136.605 33.1497 136.488 33.8004 136.488C34.451 136.488 35.0377 136.605 35.5604 136.84C36.0937 137.064 36.547 137.379 36.9204 137.784C37.3044 138.179 37.5977 138.637 37.8004 139.16C38.003 139.683 38.1044 140.237 38.1044 140.824C38.1044 141.411 38.003 141.965 37.8004 142.488C37.5977 143 37.3044 143.459 36.9204 143.864C36.547 144.269 36.0937 144.589 35.5604 144.824C35.0377 145.048 34.451 145.16 33.8004 145.16ZM31.3044 140.84C31.3044 141.373 31.4164 141.853 31.6404 142.28C31.8644 142.707 32.163 143.043 32.5364 143.288C32.9097 143.533 33.331 143.656 33.8004 143.656C34.259 143.656 34.675 143.533 35.0484 143.288C35.4324 143.032 35.7364 142.691 35.9604 142.264C36.1844 141.827 36.2964 141.347 36.2964 140.824C36.2964 140.291 36.1844 139.811 35.9604 139.384C35.7364 138.957 35.4324 138.621 35.0484 138.376C34.675 138.12 34.259 137.992 33.8004 137.992C33.331 137.992 32.9097 138.12 32.5364 138.376C32.163 138.632 31.8644 138.973 31.6404 139.4C31.4164 139.816 31.3044 140.296 31.3044 140.84ZM44.1774 145.16C43.5374 145.16 42.956 145.011 42.4334 144.712C41.9214 144.403 41.516 143.992 41.2174 143.48V145H39.6654V133.32H41.4254V138.216C41.756 137.683 42.1667 137.261 42.6574 136.952C43.1587 136.643 43.7454 136.488 44.4174 136.488C44.972 136.488 45.4787 136.605 45.9374 136.84C46.396 137.075 46.7854 137.395 47.1054 137.8C47.436 138.205 47.6867 138.669 47.8574 139.192C48.0387 139.715 48.1294 140.269 48.1294 140.856C48.1294 141.443 48.028 141.997 47.8254 142.52C47.6334 143.043 47.356 143.501 46.9934 143.896C46.6307 144.291 46.2094 144.6 45.7294 144.824C45.26 145.048 44.7427 145.16 44.1774 145.16ZM43.7134 143.656C44.0974 143.656 44.4494 143.581 44.7694 143.432C45.0894 143.272 45.3667 143.064 45.6014 142.808C45.836 142.552 46.012 142.253 46.1294 141.912C46.2574 141.571 46.3214 141.219 46.3214 140.856C46.3214 140.355 46.2147 139.885 46.0014 139.448C45.7987 139.011 45.5107 138.659 45.1374 138.392C44.764 138.125 44.332 137.992 43.8414 137.992C43.4894 137.992 43.1587 138.077 42.8494 138.248C42.54 138.408 42.2627 138.627 42.0174 138.904C41.7827 139.171 41.5854 139.469 41.4254 139.8V142.008C41.4894 142.253 41.6014 142.477 41.7614 142.68C41.9214 142.872 42.108 143.043 42.3214 143.192C42.5347 143.331 42.764 143.443 43.0094 143.528C43.2547 143.613 43.4894 143.656 43.7134 143.656ZM49.7283 133.32H51.4883V142.584C51.4883 143.011 51.5523 143.283 51.6803 143.4C51.8083 143.517 51.9683 143.576 52.1603 143.576C52.3736 143.576 52.5709 143.555 52.7523 143.512C52.9443 143.469 53.1096 143.416 53.2483 143.352L53.5043 144.744C53.2483 144.851 52.9443 144.941 52.5923 145.016C52.2403 145.091 51.9256 145.128 51.6483 145.128C51.0509 145.128 50.5816 144.963 50.2403 144.632C49.8989 144.291 49.7283 143.821 49.7283 143.224V133.32ZM58.3168 145.16C57.6661 145.16 57.0741 145.048 56.5408 144.824C56.0181 144.589 55.5648 144.275 55.1808 143.88C54.7968 143.475 54.4981 143.016 54.2848 142.504C54.0821 141.981 53.9808 141.427 53.9808 140.84C53.9808 140.051 54.1621 139.331 54.5247 138.68C54.8874 138.019 55.3941 137.491 56.0448 137.096C56.6954 136.691 57.4581 136.488 58.3328 136.488C59.2074 136.488 59.9594 136.691 60.5888 137.096C61.2288 137.491 61.7248 138.013 62.0768 138.664C62.4288 139.315 62.6048 140.013 62.6048 140.76C62.6048 140.888 62.5994 141.011 62.5888 141.128C62.5781 141.235 62.5674 141.325 62.5568 141.4H55.8528C55.8848 141.891 56.0181 142.323 56.2528 142.696C56.4981 143.059 56.8074 143.347 57.1808 143.56C57.5541 143.763 57.9541 143.864 58.3808 143.864C58.8501 143.864 59.2928 143.747 59.7088 143.512C60.1354 143.277 60.4234 142.968 60.5728 142.584L62.0768 143.016C61.8954 143.421 61.6181 143.789 61.2448 144.12C60.8821 144.44 60.4501 144.696 59.9488 144.888C59.4474 145.069 58.9034 145.16 58.3168 145.16ZM55.8048 140.232H60.8608C60.8288 139.752 60.6901 139.331 60.4448 138.968C60.2101 138.595 59.9061 138.307 59.5328 138.104C59.1701 137.891 58.7648 137.784 58.3168 137.784C57.8794 137.784 57.4741 137.891 57.1008 138.104C56.7381 138.307 56.4394 138.595 56.2048 138.968C55.9701 139.331 55.8368 139.752 55.8048 140.232ZM76.8404 145H75.0804V140.312C75.0804 139.533 74.9524 138.963 74.6964 138.6C74.4404 138.237 74.067 138.056 73.5764 138.056C73.0857 138.056 72.627 138.243 72.2004 138.616C71.7844 138.979 71.491 139.453 71.3204 140.04V145H69.5604V140.312C69.5604 139.533 69.4324 138.963 69.1764 138.6C68.9204 138.237 68.5524 138.056 68.0724 138.056C67.5817 138.056 67.123 138.237 66.6964 138.6C66.2804 138.963 65.9817 139.437 65.8004 140.024V145H64.0404V136.632H65.6404V138.312C65.971 137.725 66.403 137.277 66.9364 136.968C67.4804 136.648 68.099 136.488 68.7924 136.488C69.4857 136.488 70.0297 136.669 70.4244 137.032C70.8297 137.395 71.0804 137.848 71.1764 138.392C71.539 137.773 71.9817 137.304 72.5044 136.984C73.0377 136.653 73.6457 136.488 74.3284 136.488C74.819 136.488 75.2297 136.579 75.5604 136.76C75.891 136.941 76.147 137.192 76.3284 137.512C76.5097 137.821 76.6377 138.184 76.7124 138.6C76.7977 139.005 76.8404 139.437 76.8404 139.896V145Z" fill="white"/>
<path d="M566.062 136.312C565.956 136.195 565.801 136.072 565.599 135.944C565.396 135.805 565.156 135.677 564.879 135.56C564.601 135.443 564.303 135.347 563.983 135.272C563.663 135.197 563.332 135.16 562.991 135.16C562.244 135.16 561.689 135.299 561.327 135.576C560.964 135.853 560.783 136.237 560.783 136.728C560.783 137.091 560.884 137.379 561.087 137.592C561.289 137.795 561.599 137.965 562.015 138.104C562.431 138.243 562.953 138.392 563.583 138.552C564.351 138.733 565.017 138.952 565.583 139.208C566.148 139.453 566.58 139.784 566.878 140.2C567.177 140.616 567.327 141.165 567.327 141.848C567.327 142.424 567.22 142.92 567.007 143.336C566.793 143.752 566.495 144.093 566.111 144.36C565.727 144.616 565.284 144.808 564.783 144.936C564.281 145.053 563.743 145.112 563.167 145.112C562.601 145.112 562.036 145.053 561.471 144.936C560.916 144.819 560.383 144.648 559.871 144.424C559.369 144.189 558.905 143.907 558.479 143.576L559.295 142.04C559.433 142.179 559.631 142.333 559.887 142.504C560.153 142.664 560.457 142.819 560.799 142.968C561.151 143.117 561.529 143.245 561.935 143.352C562.351 143.448 562.772 143.496 563.199 143.496C563.913 143.496 564.457 143.373 564.831 143.128C565.215 142.872 565.407 142.509 565.407 142.04C565.407 141.656 565.284 141.352 565.039 141.128C564.793 140.893 564.436 140.696 563.967 140.536C563.497 140.376 562.937 140.216 562.286 140.056C561.54 139.853 560.916 139.635 560.414 139.4C559.913 139.155 559.535 138.845 559.279 138.472C559.033 138.088 558.911 137.603 558.911 137.016C558.911 136.269 559.092 135.64 559.455 135.128C559.817 134.605 560.308 134.216 560.927 133.96C561.556 133.693 562.26 133.56 563.039 133.56C563.551 133.56 564.036 133.619 564.495 133.736C564.953 133.843 565.38 133.992 565.775 134.184C566.18 134.376 566.548 134.595 566.878 134.84L566.062 136.312ZM572.66 145.16C571.998 145.16 571.406 145.048 570.884 144.824C570.361 144.589 569.908 144.269 569.524 143.864C569.15 143.459 568.862 143 568.66 142.488C568.457 141.965 568.356 141.411 568.356 140.824C568.356 140.237 568.457 139.683 568.66 139.16C568.862 138.637 569.15 138.179 569.524 137.784C569.908 137.379 570.361 137.064 570.884 136.84C571.417 136.605 572.009 136.488 572.66 136.488C573.31 136.488 573.897 136.605 574.42 136.84C574.953 137.064 575.406 137.379 575.78 137.784C576.164 138.179 576.457 138.637 576.66 139.16C576.862 139.683 576.964 140.237 576.964 140.824C576.964 141.411 576.862 141.965 576.66 142.488C576.457 143 576.164 143.459 575.78 143.864C575.406 144.269 574.953 144.589 574.42 144.824C573.897 145.048 573.31 145.16 572.66 145.16ZM570.164 140.84C570.164 141.373 570.276 141.853 570.5 142.28C570.724 142.707 571.022 143.043 571.396 143.288C571.769 143.533 572.19 143.656 572.66 143.656C573.118 143.656 573.534 143.533 573.908 143.288C574.292 143.032 574.596 142.691 574.82 142.264C575.044 141.827 575.156 141.347 575.156 140.824C575.156 140.291 575.044 139.811 574.82 139.384C574.596 138.957 574.292 138.621 573.908 138.376C573.534 138.12 573.118 137.992 572.66 137.992C572.19 137.992 571.769 138.12 571.396 138.376C571.022 138.632 570.724 138.973 570.5 139.4C570.276 139.816 570.164 140.296 570.164 140.84ZM578.541 133.32H580.301V142.584C580.301 143.011 580.365 143.283 580.493 143.4C580.621 143.517 580.781 143.576 580.973 143.576C581.186 143.576 581.383 143.555 581.565 143.512C581.757 143.469 581.922 143.416 582.061 143.352L582.317 144.744C582.061 144.851 581.757 144.941 581.405 145.016C581.053 145.091 580.738 145.128 580.461 145.128C579.863 145.128 579.394 144.963 579.053 144.632C578.711 144.291 578.541 143.821 578.541 143.224V133.32ZM583.257 141.752V136.632H585.017V141.4C585.017 142.147 585.151 142.712 585.417 143.096C585.695 143.469 586.095 143.656 586.617 143.656C586.948 143.656 587.268 143.587 587.577 143.448C587.897 143.309 588.185 143.107 588.441 142.84C588.708 142.563 588.921 142.232 589.081 141.848V136.632H590.841V143.016C590.841 143.219 590.879 143.363 590.953 143.448C591.028 143.533 591.151 143.581 591.321 143.592V145C591.14 145.032 590.991 145.053 590.873 145.064C590.756 145.075 590.644 145.08 590.537 145.08C590.217 145.08 589.951 144.995 589.737 144.824C589.524 144.643 589.401 144.413 589.369 144.136L589.337 143.304C588.964 143.912 588.479 144.376 587.881 144.696C587.284 145.005 586.628 145.16 585.913 145.16C585.039 145.16 584.377 144.872 583.929 144.296C583.481 143.72 583.257 142.872 583.257 141.752ZM597.728 144.568C597.578 144.643 597.392 144.723 597.168 144.808C596.944 144.893 596.688 144.968 596.4 145.032C596.122 145.096 595.834 145.128 595.536 145.128C595.173 145.128 594.837 145.064 594.528 144.936C594.218 144.808 593.968 144.605 593.776 144.328C593.594 144.04 593.504 143.672 593.504 143.224V137.992H592.4V136.632H593.504V133.88H595.264V136.632H597.088V137.992H595.264V142.664C595.285 142.952 595.376 143.165 595.536 143.304C595.706 143.443 595.914 143.512 596.16 143.512C596.405 143.512 596.64 143.469 596.864 143.384C597.088 143.299 597.253 143.229 597.36 143.176L597.728 144.568ZM598.947 145V136.632H600.707V145H598.947ZM598.947 135.256V133.32H600.707V135.256H598.947ZM606.582 145.16C605.92 145.16 605.328 145.048 604.806 144.824C604.283 144.589 603.83 144.269 603.446 143.864C603.072 143.459 602.784 143 602.582 142.488C602.379 141.965 602.278 141.411 602.278 140.824C602.278 140.237 602.379 139.683 602.582 139.16C602.784 138.637 603.072 138.179 603.446 137.784C603.83 137.379 604.283 137.064 604.806 136.84C605.339 136.605 605.931 136.488 606.582 136.488C607.232 136.488 607.819 136.605 608.342 136.84C608.875 137.064 609.328 137.379 609.702 137.784C610.086 138.179 610.379 138.637 610.582 139.16C610.784 139.683 610.886 140.237 610.886 140.824C610.886 141.411 610.784 141.965 610.582 142.488C610.379 143 610.086 143.459 609.702 143.864C609.328 144.269 608.875 144.589 608.342 144.824C607.819 145.048 607.232 145.16 606.582 145.16ZM604.086 140.84C604.086 141.373 604.198 141.853 604.422 142.28C604.646 142.707 604.944 143.043 605.318 143.288C605.691 143.533 606.112 143.656 606.582 143.656C607.04 143.656 607.456 143.533 607.83 143.288C608.214 143.032 608.518 142.691 608.742 142.264C608.966 141.827 609.078 141.347 609.078 140.824C609.078 140.291 608.966 139.811 608.742 139.384C608.518 138.957 608.214 138.621 607.83 138.376C607.456 138.12 607.04 137.992 606.582 137.992C606.112 137.992 605.691 138.12 605.318 138.376C604.944 138.632 604.646 138.973 604.422 139.4C604.198 139.816 604.086 140.296 604.086 140.84ZM619.951 145H618.191V140.312C618.191 139.533 618.063 138.963 617.807 138.6C617.561 138.237 617.193 138.056 616.703 138.056C616.361 138.056 616.02 138.141 615.679 138.312C615.348 138.483 615.049 138.717 614.783 139.016C614.516 139.304 614.324 139.64 614.207 140.024V145H612.447V136.632H614.047V138.312C614.26 137.939 614.537 137.619 614.879 137.352C615.231 137.075 615.625 136.861 616.063 136.712C616.5 136.563 616.964 136.488 617.455 136.488C617.956 136.488 618.367 136.579 618.687 136.76C619.017 136.941 619.273 137.192 619.455 137.512C619.647 137.821 619.775 138.184 619.839 138.6C619.913 139.005 619.951 139.437 619.951 139.896V145Z" fill="white"/>
<path d="M287.468 101V89.64H292.236C292.748 89.64 293.217 89.7467 293.644 89.96C294.07 90.1733 294.444 90.456 294.764 90.808C295.084 91.16 295.329 91.5547 295.5 91.992C295.67 92.4293 295.756 92.8773 295.756 93.336C295.756 93.9653 295.612 94.568 295.324 95.144C295.046 95.7093 294.646 96.168 294.124 96.52C293.612 96.872 293.014 97.048 292.332 97.048H289.26V101H287.468ZM289.26 95.464H292.22C292.561 95.464 292.86 95.3733 293.116 95.192C293.372 95 293.569 94.744 293.708 94.424C293.857 94.104 293.932 93.7413 293.932 93.336C293.932 92.92 293.846 92.552 293.676 92.232C293.505 91.912 293.281 91.6667 293.004 91.496C292.737 91.3147 292.444 91.224 292.124 91.224H289.26V95.464ZM301.916 94.152C301.234 94.1627 300.626 94.3173 300.092 94.616C299.57 94.9147 299.196 95.336 298.972 95.88V101H297.212V92.632H298.844V94.504C299.132 93.928 299.511 93.4693 299.98 93.128C300.45 92.776 300.946 92.584 301.468 92.552C301.575 92.552 301.66 92.552 301.724 92.552C301.799 92.552 301.863 92.5573 301.916 92.568V94.152ZM306.8 101.16C306.139 101.16 305.547 101.048 305.024 100.824C304.502 100.589 304.048 100.269 303.664 99.864C303.291 99.4587 303.003 99 302.8 98.488C302.598 97.9653 302.496 97.4107 302.496 96.824C302.496 96.2373 302.598 95.6827 302.8 95.16C303.003 94.6373 303.291 94.1787 303.664 93.784C304.048 93.3787 304.502 93.064 305.024 92.84C305.558 92.6053 306.15 92.488 306.8 92.488C307.451 92.488 308.038 92.6053 308.56 92.84C309.094 93.064 309.547 93.3787 309.92 93.784C310.304 94.1787 310.598 94.6373 310.8 95.16C311.003 95.6827 311.104 96.2373 311.104 96.824C311.104 97.4107 311.003 97.9653 310.8 98.488C310.598 99 310.304 99.4587 309.92 99.864C309.547 100.269 309.094 100.589 308.56 100.824C308.038 101.048 307.451 101.16 306.8 101.16ZM304.304 96.84C304.304 97.3733 304.416 97.8533 304.64 98.28C304.864 98.7067 305.163 99.0427 305.536 99.288C305.91 99.5333 306.331 99.656 306.8 99.656C307.259 99.656 307.675 99.5333 308.048 99.288C308.432 99.032 308.736 98.6907 308.96 98.264C309.184 97.8267 309.296 97.3467 309.296 96.824C309.296 96.2907 309.184 95.8107 308.96 95.384C308.736 94.9573 308.432 94.6213 308.048 94.376C307.675 94.12 307.259 93.992 306.8 93.992C306.331 93.992 305.91 94.12 305.536 94.376C305.163 94.632 304.864 94.9733 304.64 95.4C304.416 95.816 304.304 96.296 304.304 96.84ZM317.177 101.16C316.537 101.16 315.956 101.011 315.433 100.712C314.921 100.403 314.516 99.992 314.217 99.48V101H312.665V89.32H314.425V94.216C314.756 93.6827 315.167 93.2613 315.657 92.952C316.159 92.6427 316.745 92.488 317.417 92.488C317.972 92.488 318.479 92.6053 318.937 92.84C319.396 93.0747 319.785 93.3947 320.105 93.8C320.436 94.2053 320.687 94.6693 320.857 95.192C321.039 95.7147 321.129 96.2693 321.129 96.856C321.129 97.4427 321.028 97.9973 320.825 98.52C320.633 99.0427 320.356 99.5013 319.993 99.896C319.631 100.291 319.209 100.6 318.729 100.824C318.26 101.048 317.743 101.16 317.177 101.16ZM316.713 99.656C317.097 99.656 317.449 99.5813 317.769 99.432C318.089 99.272 318.367 99.064 318.601 98.808C318.836 98.552 319.012 98.2533 319.129 97.912C319.257 97.5707 319.321 97.2187 319.321 96.856C319.321 96.3547 319.215 95.8853 319.001 95.448C318.799 95.0107 318.511 94.6587 318.137 94.392C317.764 94.1253 317.332 93.992 316.841 93.992C316.489 93.992 316.159 94.0773 315.849 94.248C315.54 94.408 315.263 94.6267 315.017 94.904C314.783 95.1707 314.585 95.4693 314.425 95.8V98.008C314.489 98.2533 314.601 98.4773 314.761 98.68C314.921 98.872 315.108 99.0427 315.321 99.192C315.535 99.3307 315.764 99.4427 316.009 99.528C316.255 99.6133 316.489 99.656 316.713 99.656ZM322.728 89.32H324.488V98.584C324.488 99.0107 324.552 99.2827 324.68 99.4C324.808 99.5173 324.968 99.576 325.16 99.576C325.374 99.576 325.571 99.5547 325.752 99.512C325.944 99.4693 326.11 99.416 326.248 99.352L326.504 100.744C326.248 100.851 325.944 100.941 325.592 101.016C325.24 101.091 324.926 101.128 324.648 101.128C324.051 101.128 323.582 100.963 323.24 100.632C322.899 100.291 322.728 99.8213 322.728 99.224V89.32ZM331.317 101.16C330.666 101.16 330.074 101.048 329.541 100.824C329.018 100.589 328.565 100.275 328.181 99.88C327.797 99.4747 327.498 99.016 327.285 98.504C327.082 97.9813 326.981 97.4267 326.981 96.84C326.981 96.0507 327.162 95.3307 327.525 94.68C327.887 94.0187 328.394 93.4907 329.045 93.096C329.695 92.6907 330.458 92.488 331.333 92.488C332.207 92.488 332.959 92.6907 333.589 93.096C334.229 93.4907 334.725 94.0133 335.077 94.664C335.429 95.3147 335.605 96.0133 335.605 96.76C335.605 96.888 335.599 97.0107 335.589 97.128C335.578 97.2347 335.567 97.3253 335.557 97.4H328.853C328.885 97.8907 329.018 98.3227 329.253 98.696C329.498 99.0587 329.807 99.3467 330.181 99.56C330.554 99.7627 330.954 99.864 331.381 99.864C331.85 99.864 332.293 99.7467 332.709 99.512C333.135 99.2773 333.423 98.968 333.573 98.584L335.077 99.016C334.895 99.4213 334.618 99.7893 334.245 100.12C333.882 100.44 333.45 100.696 332.949 100.888C332.447 101.069 331.903 101.16 331.317 101.16ZM328.805 96.232H333.861C333.829 95.752 333.69 95.3307 333.445 94.968C333.21 94.5947 332.906 94.3067 332.533 94.104C332.17 93.8907 331.765 93.784 331.317 93.784C330.879 93.784 330.474 93.8907 330.101 94.104C329.738 94.3067 329.439 94.5947 329.205 94.968C328.97 95.3307 328.837 95.752 328.805 96.232ZM349.84 101H348.08V96.312C348.08 95.5333 347.952 94.9627 347.696 94.6C347.44 94.2373 347.067 94.056 346.576 94.056C346.086 94.056 345.627 94.2427 345.2 94.616C344.784 94.9787 344.491 95.4533 344.32 96.04V101H342.56V96.312C342.56 95.5333 342.432 94.9627 342.176 94.6C341.92 94.2373 341.552 94.056 341.072 94.056C340.582 94.056 340.123 94.2373 339.696 94.6C339.28 94.9627 338.982 95.4373 338.8 96.024V101H337.04V92.632H338.64V94.312C338.971 93.7253 339.403 93.2773 339.936 92.968C340.48 92.648 341.099 92.488 341.792 92.488C342.486 92.488 343.03 92.6693 343.424 93.032C343.83 93.3947 344.08 93.848 344.176 94.392C344.539 93.7733 344.982 93.304 345.504 92.984C346.038 92.6533 346.646 92.488 347.328 92.488C347.819 92.488 348.23 92.5787 348.56 92.76C348.891 92.9413 349.147 93.192 349.328 93.512C349.51 93.8213 349.638 94.184 349.712 94.6C349.798 95.0053 349.84 95.4373 349.84 95.896V101ZM283.676 115.824C283.676 115.024 283.836 114.299 284.156 113.648C284.487 112.987 284.935 112.464 285.5 112.08C286.066 111.685 286.716 111.488 287.452 111.488C288.092 111.488 288.668 111.653 289.18 111.984C289.703 112.315 290.108 112.725 290.396 113.216V108.32H292.156V118.016C292.156 118.219 292.194 118.363 292.268 118.448C292.343 118.533 292.466 118.581 292.636 118.592V120C292.306 120.053 292.05 120.08 291.868 120.08C291.538 120.08 291.255 119.984 291.02 119.792C290.796 119.6 290.679 119.371 290.668 119.104L290.652 118.48C290.332 119.013 289.9 119.429 289.356 119.728C288.812 120.016 288.247 120.16 287.66 120.16C287.084 120.16 286.551 120.048 286.06 119.824C285.58 119.6 285.159 119.285 284.796 118.88C284.444 118.475 284.167 118.011 283.964 117.488C283.772 116.965 283.676 116.411 283.676 115.824ZM290.396 116.992V114.8C290.279 114.459 290.087 114.155 289.82 113.888C289.564 113.611 289.271 113.392 288.94 113.232C288.62 113.072 288.3 112.992 287.98 112.992C287.607 112.992 287.266 113.072 286.956 113.232C286.658 113.392 286.396 113.605 286.172 113.872C285.959 114.139 285.794 114.443 285.676 114.784C285.559 115.125 285.5 115.483 285.5 115.856C285.5 116.24 285.564 116.603 285.692 116.944C285.82 117.275 286.002 117.573 286.236 117.84C286.482 118.096 286.759 118.299 287.068 118.448C287.388 118.587 287.735 118.656 288.108 118.656C288.343 118.656 288.578 118.613 288.812 118.528C289.058 118.443 289.287 118.325 289.5 118.176C289.724 118.027 289.911 117.851 290.06 117.648C290.22 117.445 290.332 117.227 290.396 116.992ZM298.184 120.16C297.533 120.16 296.941 120.048 296.408 119.824C295.885 119.589 295.432 119.275 295.048 118.88C294.664 118.475 294.365 118.016 294.152 117.504C293.949 116.981 293.848 116.427 293.848 115.84C293.848 115.051 294.029 114.331 294.392 113.68C294.755 113.019 295.261 112.491 295.912 112.096C296.563 111.691 297.325 111.488 298.2 111.488C299.075 111.488 299.827 111.691 300.456 112.096C301.096 112.491 301.592 113.013 301.944 113.664C302.296 114.315 302.472 115.013 302.472 115.76C302.472 115.888 302.467 116.011 302.456 116.128C302.445 116.235 302.435 116.325 302.424 116.4H295.72C295.752 116.891 295.885 117.323 296.12 117.696C296.365 118.059 296.675 118.347 297.048 118.56C297.421 118.763 297.821 118.864 298.248 118.864C298.717 118.864 299.16 118.747 299.576 118.512C300.003 118.277 300.291 117.968 300.44 117.584L301.944 118.016C301.763 118.421 301.485 118.789 301.112 119.12C300.749 119.44 300.317 119.696 299.816 119.888C299.315 120.069 298.771 120.16 298.184 120.16ZM295.672 115.232H300.728C300.696 114.752 300.557 114.331 300.312 113.968C300.077 113.595 299.773 113.307 299.4 113.104C299.037 112.891 298.632 112.784 298.184 112.784C297.747 112.784 297.341 112.891 296.968 113.104C296.605 113.307 296.307 113.595 296.072 113.968C295.837 114.331 295.704 114.752 295.672 115.232ZM304.309 113.2H303.189V111.84H304.309V111.504C304.309 111.067 304.379 110.651 304.517 110.256C304.656 109.851 304.864 109.493 305.141 109.184C305.419 108.864 305.755 108.613 306.149 108.432C306.555 108.251 307.024 108.16 307.557 108.16C307.952 108.16 308.32 108.203 308.661 108.288C309.013 108.373 309.333 108.491 309.621 108.64C309.92 108.779 310.181 108.928 310.405 109.088L309.685 110.4C309.451 110.187 309.152 110.011 308.789 109.872C308.427 109.733 308.053 109.664 307.669 109.664C307.307 109.664 307.003 109.749 306.757 109.92C306.523 110.091 306.347 110.315 306.229 110.592C306.123 110.869 306.069 111.157 306.069 111.456V111.84H310.453V120H308.693V113.2H306.069V120H304.309V113.2ZM320.068 120H318.308V115.312C318.308 114.533 318.18 113.963 317.924 113.6C317.678 113.237 317.31 113.056 316.82 113.056C316.478 113.056 316.137 113.141 315.796 113.312C315.465 113.483 315.166 113.717 314.9 114.016C314.633 114.304 314.441 114.64 314.324 115.024V120H312.564V111.632H314.164V113.312C314.377 112.939 314.654 112.619 314.996 112.352C315.348 112.075 315.742 111.861 316.18 111.712C316.617 111.563 317.081 111.488 317.572 111.488C318.073 111.488 318.484 111.579 318.804 111.76C319.134 111.941 319.39 112.192 319.572 112.512C319.764 112.821 319.892 113.184 319.956 113.6C320.03 114.005 320.068 114.437 320.068 114.896V120ZM322.111 120V111.632H323.871V120H322.111ZM322.111 110.256V108.32H323.871V110.256H322.111ZM330.642 119.568C330.492 119.643 330.306 119.723 330.082 119.808C329.858 119.893 329.602 119.968 329.314 120.032C329.036 120.096 328.748 120.128 328.45 120.128C328.087 120.128 327.751 120.064 327.442 119.936C327.132 119.808 326.882 119.605 326.69 119.328C326.508 119.04 326.418 118.672 326.418 118.224V112.992H325.314V111.632H326.418V108.88H328.178V111.632H330.002V112.992H328.178V117.664C328.199 117.952 328.29 118.165 328.45 118.304C328.62 118.443 328.828 118.512 329.074 118.512C329.319 118.512 329.554 118.469 329.778 118.384C330.002 118.299 330.167 118.229 330.274 118.176L330.642 119.568ZM331.861 120V111.632H333.621V120H331.861ZM331.861 110.256V108.32H333.621V110.256H331.861ZM339.496 120.16C338.834 120.16 338.242 120.048 337.72 119.824C337.197 119.589 336.744 119.269 336.36 118.864C335.986 118.459 335.698 118 335.496 117.488C335.293 116.965 335.192 116.411 335.192 115.824C335.192 115.237 335.293 114.683 335.496 114.16C335.698 113.637 335.986 113.179 336.36 112.784C336.744 112.379 337.197 112.064 337.72 111.84C338.253 111.605 338.845 111.488 339.496 111.488C340.146 111.488 340.733 111.605 341.256 111.84C341.789 112.064 342.242 112.379 342.616 112.784C343 113.179 343.293 113.637 343.496 114.16C343.698 114.683 343.8 115.237 343.8 115.824C343.8 116.411 343.698 116.965 343.496 117.488C343.293 118 343 118.459 342.616 118.864C342.242 119.269 341.789 119.589 341.256 119.824C340.733 120.048 340.146 120.16 339.496 120.16ZM337 115.84C337 116.373 337.112 116.853 337.336 117.28C337.56 117.707 337.858 118.043 338.232 118.288C338.605 118.533 339.026 118.656 339.496 118.656C339.954 118.656 340.37 118.533 340.744 118.288C341.128 118.032 341.432 117.691 341.656 117.264C341.88 116.827 341.992 116.347 341.992 115.824C341.992 115.291 341.88 114.811 341.656 114.384C341.432 113.957 341.128 113.621 340.744 113.376C340.37 113.12 339.954 112.992 339.496 112.992C339.026 112.992 338.605 113.12 338.232 113.376C337.858 113.632 337.56 113.973 337.336 114.4C337.112 114.816 337 115.296 337 115.84ZM352.865 120H351.105V115.312C351.105 114.533 350.977 113.963 350.721 113.6C350.475 113.237 350.107 113.056 349.617 113.056C349.275 113.056 348.934 113.141 348.593 113.312C348.262 113.483 347.963 113.717 347.697 114.016C347.43 114.304 347.238 114.64 347.121 115.024V120H345.361V111.632H346.961V113.312C347.174 112.939 347.451 112.619 347.793 112.352C348.145 112.075 348.539 111.861 348.977 111.712C349.414 111.563 349.878 111.488 350.369 111.488C350.87 111.488 351.281 111.579 351.601 111.76C351.931 111.941 352.187 112.192 352.369 112.512C352.561 112.821 352.689 113.184 352.753 113.6C352.827 114.005 352.865 114.437 352.865 114.896V120Z" fill="white"/>
<path d="M223.583 329V314.8H228.403C229.909 314.8 231.163 315.12 232.163 315.76C233.176 316.387 233.936 317.24 234.443 318.32C234.949 319.387 235.203 320.573 235.203 321.88C235.203 323.32 234.923 324.573 234.363 325.64C233.816 326.707 233.029 327.533 232.003 328.12C230.989 328.707 229.789 329 228.403 329H223.583ZM233.803 321.88C233.803 320.747 233.589 319.74 233.163 318.86C232.749 317.98 232.143 317.293 231.343 316.8C230.543 316.293 229.563 316.04 228.403 316.04H224.983V327.76H228.403C229.576 327.76 230.563 327.5 231.363 326.98C232.163 326.46 232.769 325.76 233.183 324.88C233.596 323.987 233.803 322.987 233.803 321.88ZM242.1 329.2C241.353 329.2 240.66 329.06 240.02 328.78C239.38 328.487 238.826 328.093 238.36 327.6C237.893 327.093 237.526 326.513 237.26 325.86C237.006 325.207 236.88 324.507 236.88 323.76C236.88 322.787 237.1 321.893 237.54 321.08C237.993 320.267 238.613 319.62 239.4 319.14C240.186 318.647 241.08 318.4 242.08 318.4C243.106 318.4 244 318.647 244.76 319.14C245.533 319.633 246.14 320.287 246.58 321.1C247.02 321.9 247.24 322.78 247.24 323.74C247.24 323.847 247.24 323.953 247.24 324.06C247.24 324.153 247.233 324.227 247.22 324.28H238.3C238.366 325.027 238.573 325.693 238.92 326.28C239.28 326.853 239.74 327.313 240.3 327.66C240.873 327.993 241.493 328.16 242.16 328.16C242.84 328.16 243.48 327.987 244.08 327.64C244.693 327.293 245.12 326.84 245.36 326.28L246.54 326.6C246.326 327.093 246 327.54 245.56 327.94C245.12 328.34 244.6 328.653 244 328.88C243.413 329.093 242.78 329.2 242.1 329.2ZM238.26 323.3H245.96C245.906 322.54 245.7 321.873 245.34 321.3C244.993 320.727 244.533 320.28 243.96 319.96C243.4 319.627 242.78 319.46 242.1 319.46C241.42 319.46 240.8 319.627 240.24 319.96C239.68 320.28 239.22 320.733 238.86 321.32C238.513 321.893 238.313 322.553 238.26 323.3ZM249.721 319.66H248.281V318.58H249.721V318.3C249.721 317.807 249.794 317.32 249.941 316.84C250.087 316.36 250.307 315.92 250.601 315.52C250.907 315.12 251.287 314.8 251.741 314.56C252.207 314.32 252.761 314.2 253.401 314.2C253.894 314.2 254.334 314.253 254.721 314.36C255.121 314.467 255.467 314.593 255.761 314.74C256.054 314.887 256.274 315.02 256.421 315.14L255.801 316.12C255.587 315.92 255.267 315.753 254.841 315.62C254.427 315.473 253.974 315.4 253.481 315.4C252.921 315.4 252.461 315.547 252.101 315.84C251.754 316.12 251.494 316.48 251.321 316.92C251.161 317.36 251.081 317.807 251.081 318.26V318.58H256.301V329H254.941V319.66H251.081V329H249.721V319.66ZM268.059 329H266.699V323.18C266.699 321.953 266.519 321.06 266.159 320.5C265.799 319.927 265.232 319.64 264.459 319.64C263.925 319.64 263.399 319.773 262.879 320.04C262.359 320.293 261.899 320.647 261.499 321.1C261.112 321.54 260.832 322.047 260.659 322.62V329H259.299V318.58H260.539V320.94C260.819 320.433 261.185 319.993 261.639 319.62C262.092 319.233 262.605 318.933 263.179 318.72C263.752 318.507 264.345 318.4 264.959 318.4C265.532 318.4 266.019 318.507 266.419 318.72C266.819 318.933 267.139 319.24 267.379 319.64C267.619 320.027 267.792 320.5 267.899 321.06C268.005 321.607 268.059 322.22 268.059 322.9V329ZM275.459 329.2C274.712 329.2 274.019 329.06 273.379 328.78C272.739 328.487 272.186 328.093 271.719 327.6C271.252 327.093 270.886 326.513 270.619 325.86C270.366 325.207 270.239 324.507 270.239 323.76C270.239 322.787 270.459 321.893 270.899 321.08C271.352 320.267 271.972 319.62 272.759 319.14C273.546 318.647 274.439 318.4 275.439 318.4C276.466 318.4 277.359 318.647 278.119 319.14C278.892 319.633 279.499 320.287 279.939 321.1C280.379 321.9 280.599 322.78 280.599 323.74C280.599 323.847 280.599 323.953 280.599 324.06C280.599 324.153 280.592 324.227 280.579 324.28H271.659C271.726 325.027 271.932 325.693 272.279 326.28C272.639 326.853 273.099 327.313 273.659 327.66C274.232 327.993 274.852 328.16 275.519 328.16C276.199 328.16 276.839 327.987 277.439 327.64C278.052 327.293 278.479 326.84 278.719 326.28L279.899 326.6C279.686 327.093 279.359 327.54 278.919 327.94C278.479 328.34 277.959 328.653 277.359 328.88C276.772 329.093 276.139 329.2 275.459 329.2ZM271.619 323.3H279.319C279.266 322.54 279.059 321.873 278.699 321.3C278.352 320.727 277.892 320.28 277.319 319.96C276.759 319.627 276.139 319.46 275.459 319.46C274.779 319.46 274.159 319.627 273.599 319.96C273.039 320.28 272.579 320.733 272.219 321.32C271.872 321.893 271.672 322.553 271.619 323.3Z" fill="white"/>
<path d="M350.53 329V314.8H355.35C356.857 314.8 358.11 315.12 359.11 315.76C360.123 316.387 360.883 317.24 361.39 318.32C361.897 319.387 362.15 320.573 362.15 321.88C362.15 323.32 361.87 324.573 361.31 325.64C360.763 326.707 359.977 327.533 358.95 328.12C357.937 328.707 356.737 329 355.35 329H350.53ZM360.75 321.88C360.75 320.747 360.537 319.74 360.11 318.86C359.697 317.98 359.09 317.293 358.29 316.8C357.49 316.293 356.51 316.04 355.35 316.04H351.93V327.76H355.35C356.523 327.76 357.51 327.5 358.31 326.98C359.11 326.46 359.717 325.76 360.13 324.88C360.543 323.987 360.75 322.987 360.75 321.88ZM369.047 329.2C368.3 329.2 367.607 329.06 366.967 328.78C366.327 328.487 365.774 328.093 365.307 327.6C364.84 327.093 364.474 326.513 364.207 325.86C363.954 325.207 363.827 324.507 363.827 323.76C363.827 322.787 364.047 321.893 364.487 321.08C364.94 320.267 365.56 319.62 366.347 319.14C367.134 318.647 368.027 318.4 369.027 318.4C370.054 318.4 370.947 318.647 371.707 319.14C372.48 319.633 373.087 320.287 373.527 321.1C373.967 321.9 374.187 322.78 374.187 323.74C374.187 323.847 374.187 323.953 374.187 324.06C374.187 324.153 374.18 324.227 374.167 324.28H365.247C365.314 325.027 365.52 325.693 365.867 326.28C366.227 326.853 366.687 327.313 367.247 327.66C367.82 327.993 368.44 328.16 369.107 328.16C369.787 328.16 370.427 327.987 371.027 327.64C371.64 327.293 372.067 326.84 372.307 326.28L373.487 326.6C373.274 327.093 372.947 327.54 372.507 327.94C372.067 328.34 371.547 328.653 370.947 328.88C370.36 329.093 369.727 329.2 369.047 329.2ZM365.207 323.3H372.907C372.854 322.54 372.647 321.873 372.287 321.3C371.94 320.727 371.48 320.28 370.907 319.96C370.347 319.627 369.727 319.46 369.047 319.46C368.367 319.46 367.747 319.627 367.187 319.96C366.627 320.28 366.167 320.733 365.807 321.32C365.46 321.893 365.26 322.553 365.207 323.3ZM379.112 329L374.892 318.58H376.312L379.872 327.64L383.452 318.58H384.792L380.572 329H379.112ZM390.824 329.2C390.078 329.2 389.384 329.06 388.744 328.78C388.104 328.487 387.551 328.093 387.084 327.6C386.618 327.093 386.251 326.513 385.984 325.86C385.731 325.207 385.604 324.507 385.604 323.76C385.604 322.787 385.824 321.893 386.264 321.08C386.718 320.267 387.338 319.62 388.124 319.14C388.911 318.647 389.804 318.4 390.804 318.4C391.831 318.4 392.724 318.647 393.484 319.14C394.258 319.633 394.864 320.287 395.304 321.1C395.744 321.9 395.964 322.78 395.964 323.74C395.964 323.847 395.964 323.953 395.964 324.06C395.964 324.153 395.958 324.227 395.944 324.28H387.024C387.091 325.027 387.298 325.693 387.644 326.28C388.004 326.853 388.464 327.313 389.024 327.66C389.598 327.993 390.218 328.16 390.884 328.16C391.564 328.16 392.204 327.987 392.804 327.64C393.418 327.293 393.844 326.84 394.084 326.28L395.264 326.6C395.051 327.093 394.724 327.54 394.284 327.94C393.844 328.34 393.324 328.653 392.724 328.88C392.138 329.093 391.504 329.2 390.824 329.2ZM386.984 323.3H394.684C394.631 322.54 394.424 321.873 394.064 321.3C393.718 320.727 393.258 320.28 392.684 319.96C392.124 319.627 391.504 319.46 390.824 319.46C390.144 319.46 389.524 319.627 388.964 319.96C388.404 320.28 387.944 320.733 387.584 321.32C387.238 321.893 387.038 322.553 386.984 323.3ZM398.123 314.4H399.483V326.64C399.483 327.16 399.576 327.5 399.763 327.66C399.949 327.82 400.176 327.9 400.443 327.9C400.683 327.9 400.923 327.873 401.163 327.82C401.403 327.767 401.609 327.713 401.783 327.66L402.023 328.76C401.769 328.867 401.456 328.953 401.083 329.02C400.723 329.087 400.409 329.12 400.143 329.12C399.529 329.12 399.036 328.94 398.663 328.58C398.303 328.22 398.123 327.727 398.123 327.1V314.4ZM407.952 329.2C407.205 329.2 406.512 329.06 405.872 328.78C405.245 328.487 404.698 328.093 404.232 327.6C403.778 327.093 403.425 326.52 403.172 325.88C402.918 325.227 402.792 324.54 402.792 323.82C402.792 323.073 402.918 322.38 403.172 321.74C403.425 321.087 403.785 320.513 404.252 320.02C404.718 319.513 405.265 319.12 405.892 318.84C406.532 318.547 407.225 318.4 407.972 318.4C408.718 318.4 409.405 318.547 410.032 318.84C410.658 319.12 411.205 319.513 411.672 320.02C412.138 320.513 412.498 321.087 412.752 321.74C413.005 322.38 413.132 323.073 413.132 323.82C413.132 324.54 413.005 325.227 412.752 325.88C412.498 326.52 412.138 327.093 411.672 327.6C411.218 328.093 410.672 328.487 410.032 328.78C409.405 329.06 408.712 329.2 407.952 329.2ZM404.172 323.84C404.172 324.613 404.338 325.32 404.672 325.96C405.018 326.587 405.478 327.087 406.052 327.46C406.625 327.82 407.258 328 407.952 328C408.645 328 409.278 327.813 409.852 327.44C410.425 327.067 410.885 326.56 411.232 325.92C411.578 325.267 411.752 324.56 411.752 323.8C411.752 323.027 411.578 322.32 411.232 321.68C410.885 321.04 410.425 320.533 409.852 320.16C409.278 319.787 408.645 319.6 407.952 319.6C407.258 319.6 406.625 319.793 406.052 320.18C405.492 320.567 405.038 321.08 404.692 321.72C404.345 322.347 404.172 323.053 404.172 323.84ZM420.726 329.2C419.86 329.2 419.08 328.973 418.386 328.52C417.706 328.067 417.166 327.507 416.766 326.84V333.26H415.406V318.58H416.626V320.6C417.04 319.947 417.593 319.42 418.286 319.02C418.98 318.607 419.72 318.4 420.506 318.4C421.226 318.4 421.886 318.553 422.486 318.86C423.086 319.153 423.606 319.553 424.046 320.06C424.486 320.567 424.826 321.147 425.066 321.8C425.32 322.44 425.446 323.107 425.446 323.8C425.446 324.773 425.246 325.673 424.846 326.5C424.46 327.313 423.913 327.967 423.206 328.46C422.5 328.953 421.673 329.2 420.726 329.2ZM420.346 328C420.92 328 421.433 327.887 421.886 327.66C422.34 327.42 422.726 327.1 423.046 326.7C423.38 326.3 423.633 325.853 423.806 325.36C423.98 324.853 424.066 324.333 424.066 323.8C424.066 323.24 423.966 322.707 423.766 322.2C423.58 321.693 423.306 321.247 422.946 320.86C422.586 320.473 422.173 320.167 421.706 319.94C421.24 319.713 420.733 319.6 420.186 319.6C419.84 319.6 419.48 319.667 419.106 319.8C418.733 319.933 418.373 320.127 418.026 320.38C417.693 320.62 417.413 320.893 417.186 321.2C416.96 321.507 416.82 321.833 416.766 322.18V325.38C416.98 325.873 417.266 326.32 417.626 326.72C417.986 327.107 418.4 327.42 418.866 327.66C419.346 327.887 419.84 328 420.346 328Z" fill="white"/>
<path d="M492.829 329V314.8H497.649C499.155 314.8 500.409 315.12 501.409 315.76C502.422 316.387 503.182 317.24 503.689 318.32C504.195 319.387 504.449 320.573 504.449 321.88C504.449 323.32 504.169 324.573 503.609 325.64C503.062 326.707 502.275 327.533 501.249 328.12C500.235 328.707 499.035 329 497.649 329H492.829ZM503.049 321.88C503.049 320.747 502.835 319.74 502.409 318.86C501.995 317.98 501.389 317.293 500.589 316.8C499.789 316.293 498.809 316.04 497.649 316.04H494.229V327.76H497.649C498.822 327.76 499.809 327.5 500.609 326.98C501.409 326.46 502.015 325.76 502.429 324.88C502.842 323.987 503.049 322.987 503.049 321.88ZM511.346 329.2C510.599 329.2 509.906 329.06 509.266 328.78C508.626 328.487 508.072 328.093 507.606 327.6C507.139 327.093 506.772 326.513 506.506 325.86C506.252 325.207 506.126 324.507 506.126 323.76C506.126 322.787 506.346 321.893 506.786 321.08C507.239 320.267 507.859 319.62 508.646 319.14C509.432 318.647 510.326 318.4 511.326 318.4C512.352 318.4 513.246 318.647 514.006 319.14C514.779 319.633 515.386 320.287 515.826 321.1C516.266 321.9 516.486 322.78 516.486 323.74C516.486 323.847 516.486 323.953 516.486 324.06C516.486 324.153 516.479 324.227 516.466 324.28H507.546C507.612 325.027 507.819 325.693 508.166 326.28C508.526 326.853 508.986 327.313 509.546 327.66C510.119 327.993 510.739 328.16 511.406 328.16C512.086 328.16 512.726 327.987 513.326 327.64C513.939 327.293 514.366 326.84 514.606 326.28L515.786 326.6C515.572 327.093 515.246 327.54 514.806 327.94C514.366 328.34 513.846 328.653 513.246 328.88C512.659 329.093 512.026 329.2 511.346 329.2ZM507.506 323.3H515.206C515.152 322.54 514.946 321.873 514.586 321.3C514.239 320.727 513.779 320.28 513.206 319.96C512.646 319.627 512.026 319.46 511.346 319.46C510.666 319.46 510.046 319.627 509.486 319.96C508.926 320.28 508.466 320.733 508.106 321.32C507.759 321.893 507.559 322.553 507.506 323.3ZM518.644 314.4H520.004V326.64C520.004 327.16 520.097 327.5 520.284 327.66C520.471 327.82 520.697 327.9 520.964 327.9C521.204 327.9 521.444 327.873 521.684 327.82C521.924 327.767 522.131 327.713 522.304 327.66L522.544 328.76C522.291 328.867 521.977 328.953 521.604 329.02C521.244 329.087 520.931 329.12 520.664 329.12C520.051 329.12 519.557 328.94 519.184 328.58C518.824 328.22 518.644 327.727 518.644 327.1V314.4ZM524.033 329V318.58H525.393V329H524.033ZM524.033 316.4V314.4H525.393V316.4H524.033ZM531.489 329L527.269 318.58H528.689L532.249 327.64L535.829 318.58H537.169L532.949 329H531.489ZM543.201 329.2C542.455 329.2 541.761 329.06 541.121 328.78C540.481 328.487 539.928 328.093 539.461 327.6C538.995 327.093 538.628 326.513 538.361 325.86C538.108 325.207 537.981 324.507 537.981 323.76C537.981 322.787 538.201 321.893 538.641 321.08C539.095 320.267 539.715 319.62 540.501 319.14C541.288 318.647 542.181 318.4 543.181 318.4C544.208 318.4 545.101 318.647 545.861 319.14C546.635 319.633 547.241 320.287 547.681 321.1C548.121 321.9 548.341 322.78 548.341 323.74C548.341 323.847 548.341 323.953 548.341 324.06C548.341 324.153 548.335 324.227 548.321 324.28H539.401C539.468 325.027 539.675 325.693 540.021 326.28C540.381 326.853 540.841 327.313 541.401 327.66C541.975 327.993 542.595 328.16 543.261 328.16C543.941 328.16 544.581 327.987 545.181 327.64C545.795 327.293 546.221 326.84 546.461 326.28L547.641 326.6C547.428 327.093 547.101 327.54 546.661 327.94C546.221 328.34 545.701 328.653 545.101 328.88C544.515 329.093 543.881 329.2 543.201 329.2ZM539.361 323.3H547.061C547.008 322.54 546.801 321.873 546.441 321.3C546.095 320.727 545.635 320.28 545.061 319.96C544.501 319.627 543.881 319.46 543.201 319.46C542.521 319.46 541.901 319.627 541.341 319.96C540.781 320.28 540.321 320.733 539.961 321.32C539.615 321.893 539.415 322.553 539.361 323.3ZM555.639 319.78C554.733 319.807 553.933 320.06 553.239 320.54C552.559 321.02 552.079 321.68 551.799 322.52V329H550.439V318.58H551.719V321.08C552.079 320.347 552.553 319.753 553.139 319.3C553.739 318.847 554.373 318.593 555.039 318.54C555.173 318.527 555.286 318.52 555.379 318.52C555.486 318.52 555.573 318.527 555.639 318.54V319.78Z" fill="white"/>
<line x1="189.5" y1="49" x2="189.5" y2="301" stroke="white" stroke-dasharray="2 2"/>
<line x1="446.5" y1="49" x2="446.5" y2="301" stroke="white" stroke-dasharray="2 2"/>
</svg>
